<svg width="137" height="137" viewBox="0 0 137 137" fill="none" xmlns="http://www.w3.org/2000/svg">
<rect width="137" height="137" rx="12" fill="#183966"/>
<g clip-path="url(#clip0_49_983)">
<path fill-rule="evenodd" clip-rule="evenodd" d="M100.173 29.0654H36.3117C32.2589 29.0654 28.9414 32.3828 28.9414 36.4357V100.297C28.9414 104.35 32.2589 107.668 36.3117 107.668H100.173C104.226 107.668 107.544 104.35 107.544 100.297V36.4356C107.544 32.3828 104.226 29.0654 100.173 29.0654ZM73.624 50.4103H82.6073V39.637H73.624C66.7063 39.637 61.0623 45.2796 61.0623 52.206V57.5904H53.8792V68.3665H61.0608V97.096H71.8355V68.3665H80.81L82.6072 57.5904H71.8354V52.206C71.8354 51.2311 72.658 50.4088 73.624 50.4088V50.4103Z" fill="white"/>
</g>
<defs>
<clipPath id="clip0_49_983">
<rect width="78.5992" height="78.5992" fill="white" transform="translate(28.9424 29.0664)"/>
</clipPath>
</defs>
</svg>
