<svg width="138" height="138" viewBox="0 0 138 138" fill="none" xmlns="http://www.w3.org/2000/svg">
<rect x="0.54834" y="0.114258" width="137" height="137" rx="12" fill="#183966"/>
<path fill-rule="evenodd" clip-rule="evenodd" d="M104.486 26.1143H34.6109C30.1765 26.1143 26.5483 29.7424 26.5483 34.1768V104.052C26.5483 108.486 30.1765 112.114 34.6109 112.114H104.486C108.92 112.114 112.548 108.486 112.548 104.052V34.1768C112.548 29.7424 108.92 26.1143 104.486 26.1143ZM58.7972 95.9892H48.0492V58.3632H58.7972V95.9892ZM53.4216 52.9876C50.4506 52.9876 48.0476 50.5847 48.0476 47.6135C48.0476 44.6408 50.4505 42.2379 53.4216 42.2379C56.3943 42.2379 58.7972 44.6408 58.7972 47.6135C58.7972 50.5845 56.3943 52.9876 53.4216 52.9876ZM96.4233 95.9892H85.6752V74.49C85.6752 71.5174 83.2708 69.1145 80.2996 69.1145C77.327 69.1145 74.9241 71.5174 74.9241 74.49V95.9892H64.1727V58.3632H74.9241V65.0339C77.1381 61.9898 80.5345 58.3632 84.3294 58.3632C91.0159 58.3632 96.4232 64.3784 96.4232 71.8014V95.9892H96.4233Z" fill="white"/>
</svg>
