<svg width="139" height="139" viewBox="0 0 139 139" fill="none" xmlns="http://www.w3.org/2000/svg">
<rect y="1.27051" width="137" height="137" rx="12" transform="rotate(-0.531268 0 1.27051)" fill="#183966"/>
<g clip-path="url(#clip0_49_979)">
<path d="M67.4818 31.5566C57.6961 31.5566 56.4649 31.5977 52.6245 31.7736C49.6367 31.8343 46.6808 32.4013 43.8825 33.4504C41.4775 34.3496 39.2997 35.7668 37.5034 37.6016C35.6703 39.4015 34.25 41.578 33.3406 43.9807C32.291 46.7806 31.7259 49.7389 31.6696 52.7285C31.4995 56.5689 31.4526 57.7943 31.4526 67.5799C31.4526 77.3655 31.4937 78.585 31.6696 82.4313C31.7303 85.4191 32.2973 88.375 33.3464 91.1733C34.2501 93.5761 35.6666 95.753 37.4976 97.5524C39.2959 99.3874 41.4729 100.808 43.8767 101.715C46.6774 102.762 49.6351 103.327 52.6245 103.386C56.4649 103.562 57.6903 103.603 67.4759 103.603C77.2615 103.603 78.481 103.562 82.3273 103.386C85.3166 103.327 88.2744 102.762 91.0751 101.715C93.471 100.786 95.6469 99.3675 97.464 97.5504C99.2811 95.7333 100.7 93.5574 101.629 91.1615C102.672 88.3617 103.239 85.4068 103.306 82.4196C103.476 78.5792 103.523 77.3538 103.523 67.5682C103.523 57.7826 103.476 56.5572 103.306 52.7168C103.239 49.7277 102.672 46.7708 101.629 43.969C100.724 41.5654 99.3051 39.3884 97.4718 37.5898C95.6767 35.7537 93.4985 34.3363 91.0927 33.4387C88.2843 32.391 85.3184 31.8279 82.3214 31.7736C78.4752 31.5977 77.2556 31.5566 67.47 31.5566H67.4818ZM64.2453 38.0472H67.4818C77.0973 38.0472 78.2348 38.0823 82.0341 38.2582C84.3185 38.2842 86.5814 38.7027 88.724 39.4954C90.2883 40.0732 91.7028 40.9949 92.8634 42.1924C94.0584 43.355 94.9797 44.769 95.5604 46.3318C96.3531 48.4744 96.7716 50.7373 96.7976 53.0217C96.9734 56.8151 97.0086 57.9585 97.0086 67.574C97.0086 77.1896 96.9734 78.3271 96.7976 82.1264C96.7722 84.4089 96.3537 86.67 95.5604 88.8104C94.9603 90.3628 94.0421 91.7725 92.8647 92.9488C91.6873 94.1252 90.2769 95.0422 88.724 95.641C86.5829 96.4397 84.3192 96.8603 82.0341 96.884C78.2407 97.0599 77.0973 97.095 67.4818 97.095C57.8662 97.095 56.7229 97.0599 52.9235 96.884C50.6388 96.8561 48.3759 96.4356 46.2337 95.641C44.6678 95.0656 43.2512 94.1459 42.0884 92.9498C40.893 91.7887 39.9734 90.3741 39.3972 88.8104C38.6026 86.6682 38.1821 84.4052 38.1542 82.1205C37.9842 78.3212 37.949 77.1838 37.949 67.5623C37.949 57.9409 37.9842 56.8093 38.1542 53.0099C38.1786 50.7249 38.5992 48.4614 39.3972 46.3201C39.9734 44.7564 40.893 43.3418 42.0884 42.1807C43.2522 40.9843 44.6684 40.0629 46.2337 39.4836C48.3766 38.6914 50.6391 38.2711 52.9235 38.2406C56.2479 38.0941 57.532 38.0472 64.2453 38.0413V38.0472ZM86.7071 44.0276C85.851 44.0276 85.0142 44.2815 84.3025 44.7572C83.5908 45.2329 83.0362 45.9091 82.7089 46.7001C82.3815 47.4911 82.2962 48.3614 82.4636 49.2009C82.6311 50.0404 83.0438 50.8114 83.6495 51.4163C84.2552 52.0212 85.0268 52.4329 85.8665 52.5992C86.7062 52.7655 87.5764 52.6789 88.367 52.3505C89.1576 52.0221 89.8329 51.4666 90.3077 50.7543C90.7824 50.0419 91.0352 49.2048 91.0341 48.3487C91.0341 47.7808 90.9221 47.2184 90.7046 46.6937C90.4871 46.1691 90.1682 45.6925 89.7664 45.2911C89.3645 44.8898 88.8874 44.5716 88.3625 44.3548C87.8376 44.138 87.275 44.0268 86.7071 44.0276ZM67.4818 49.0816C63.8231 49.0816 60.2467 50.1665 57.2047 52.1991C54.1626 54.2318 51.7917 57.1208 50.3916 60.5009C48.9915 63.881 48.6252 67.6004 49.3389 71.1887C50.0527 74.777 51.8145 78.0731 54.4015 80.6601C56.9885 83.2472 60.2846 85.009 63.8729 85.7227C67.4612 86.4365 71.1806 86.0702 74.5607 84.6701C77.9409 83.27 80.8299 80.899 82.8625 77.857C84.8951 74.815 85.98 71.2385 85.98 67.5799C85.9785 62.6743 84.0291 57.9701 80.5603 54.5014C77.0915 51.0326 72.3873 49.0832 67.4818 49.0816ZM67.4818 55.5721C69.8574 55.5687 72.1807 56.2699 74.1577 57.5873C76.1347 58.9046 77.6765 60.7787 78.588 62.9725C79.4995 65.1663 79.7398 67.5813 79.2785 69.9117C78.8172 72.2421 77.6749 74.3833 75.9963 76.0644C74.3177 77.7455 72.1782 78.8909 69.8484 79.3556C67.5187 79.8204 65.1034 79.5836 62.9083 78.6753C60.7131 77.767 58.8367 76.2279 57.5165 74.2529C56.1963 72.2778 55.4916 69.9556 55.4916 67.5799C55.4978 64.4024 56.7632 61.3568 59.0106 59.1105C61.2581 56.8642 64.3042 55.6002 67.4818 55.5956V55.5721Z" fill="white"/>
</g>
<defs>
<clipPath id="clip0_49_979">
<rect width="72.0465" height="72.0465" fill="white" transform="translate(31.4526 31.5566)"/>
</clipPath>
</defs>
</svg>
