<svg width="598" height="447" viewBox="0 0 598 447" fill="none" xmlns="http://www.w3.org/2000/svg">
<rect x="0.5" y="252.5" width="597" height="194" rx="18.5" fill="#FBFBFB" stroke="#B6B1B1"/>
<path d="M147.082 303.975C147.082 304.157 147.073 304.312 147.055 304.439C147.036 304.558 147.005 304.663 146.959 304.754C146.923 304.836 146.872 304.9 146.809 304.945C146.754 304.982 146.686 305 146.604 305H138.783C138.574 305 138.373 304.932 138.182 304.795C137.999 304.649 137.908 304.398 137.908 304.043V287.664C137.908 287.591 137.926 287.527 137.963 287.473C137.999 287.418 138.063 287.377 138.154 287.35C138.245 287.313 138.368 287.286 138.523 287.268C138.678 287.24 138.865 287.227 139.084 287.227C139.312 287.227 139.499 287.24 139.645 287.268C139.799 287.286 139.923 287.313 140.014 287.35C140.105 287.377 140.169 287.418 140.205 287.473C140.242 287.527 140.26 287.591 140.26 287.664V302.963H146.604C146.686 302.963 146.754 302.986 146.809 303.031C146.872 303.068 146.923 303.127 146.959 303.209C147.005 303.282 147.036 303.382 147.055 303.51C147.073 303.637 147.082 303.792 147.082 303.975ZM151.689 304.658C151.689 304.731 151.671 304.795 151.635 304.85C151.598 304.895 151.539 304.936 151.457 304.973C151.375 305.009 151.261 305.036 151.115 305.055C150.969 305.073 150.783 305.082 150.555 305.082C150.336 305.082 150.154 305.073 150.008 305.055C149.862 305.036 149.743 305.009 149.652 304.973C149.57 304.936 149.511 304.895 149.475 304.85C149.447 304.795 149.434 304.731 149.434 304.658V292.354C149.434 292.29 149.447 292.23 149.475 292.176C149.511 292.121 149.57 292.076 149.652 292.039C149.743 292.003 149.862 291.975 150.008 291.957C150.154 291.939 150.336 291.93 150.555 291.93C150.783 291.93 150.969 291.939 151.115 291.957C151.261 291.975 151.375 292.003 151.457 292.039C151.539 292.076 151.598 292.121 151.635 292.176C151.671 292.23 151.689 292.29 151.689 292.354V304.658ZM151.949 288.197C151.949 288.726 151.849 289.086 151.648 289.277C151.448 289.469 151.079 289.564 150.541 289.564C150.012 289.564 149.648 289.473 149.447 289.291C149.256 289.1 149.16 288.744 149.16 288.225C149.16 287.696 149.26 287.336 149.461 287.145C149.661 286.953 150.031 286.857 150.568 286.857C151.097 286.857 151.457 286.953 151.648 287.145C151.849 287.327 151.949 287.678 151.949 288.197ZM162.6 287.295C162.6 287.468 162.59 287.609 162.572 287.719C162.554 287.819 162.531 287.901 162.504 287.965C162.486 288.029 162.458 288.074 162.422 288.102C162.385 288.12 162.34 288.129 162.285 288.129C162.221 288.129 162.139 288.111 162.039 288.074C161.948 288.029 161.834 287.983 161.697 287.938C161.561 287.883 161.396 287.837 161.205 287.801C161.023 287.755 160.809 287.732 160.562 287.732C160.225 287.732 159.938 287.787 159.701 287.896C159.464 288.006 159.273 288.179 159.127 288.416C158.981 288.644 158.876 288.945 158.812 289.318C158.749 289.683 158.717 290.13 158.717 290.658V291.998H161.465C161.538 291.998 161.597 292.016 161.643 292.053C161.697 292.08 161.743 292.135 161.779 292.217C161.825 292.29 161.857 292.385 161.875 292.504C161.902 292.622 161.916 292.768 161.916 292.941C161.916 293.27 161.875 293.507 161.793 293.652C161.711 293.798 161.602 293.871 161.465 293.871H158.717V304.658C158.717 304.731 158.699 304.795 158.662 304.85C158.626 304.895 158.562 304.936 158.471 304.973C158.389 305.009 158.275 305.036 158.129 305.055C157.983 305.073 157.801 305.082 157.582 305.082C157.363 305.082 157.181 305.073 157.035 305.055C156.889 305.036 156.771 305.009 156.68 304.973C156.598 304.936 156.538 304.895 156.502 304.85C156.465 304.795 156.447 304.731 156.447 304.658V293.871H154.711C154.565 293.871 154.456 293.798 154.383 293.652C154.31 293.507 154.273 293.27 154.273 292.941C154.273 292.768 154.283 292.622 154.301 292.504C154.319 292.385 154.346 292.29 154.383 292.217C154.419 292.135 154.465 292.08 154.52 292.053C154.574 292.016 154.638 291.998 154.711 291.998H156.447V290.727C156.447 289.87 156.525 289.136 156.68 288.525C156.844 287.906 157.09 287.4 157.418 287.008C157.746 286.616 158.156 286.329 158.648 286.146C159.15 285.955 159.738 285.859 160.412 285.859C160.731 285.859 161.041 285.891 161.342 285.955C161.643 286.01 161.875 286.074 162.039 286.146C162.203 286.21 162.312 286.27 162.367 286.324C162.422 286.379 162.467 286.452 162.504 286.543C162.54 286.625 162.563 286.73 162.572 286.857C162.59 286.976 162.6 287.122 162.6 287.295ZM174.207 297.973C174.207 298.328 174.116 298.583 173.934 298.738C173.76 298.884 173.56 298.957 173.332 298.957H165.266C165.266 299.641 165.334 300.256 165.471 300.803C165.607 301.35 165.835 301.819 166.154 302.211C166.473 302.603 166.888 302.904 167.398 303.113C167.909 303.323 168.533 303.428 169.271 303.428C169.855 303.428 170.374 303.382 170.83 303.291C171.286 303.191 171.678 303.081 172.006 302.963C172.343 302.844 172.617 302.74 172.826 302.648C173.045 302.548 173.209 302.498 173.318 302.498C173.382 302.498 173.437 302.516 173.482 302.553C173.537 302.58 173.578 302.626 173.605 302.689C173.633 302.753 173.651 302.844 173.66 302.963C173.678 303.072 173.688 303.209 173.688 303.373C173.688 303.492 173.683 303.596 173.674 303.688C173.665 303.77 173.651 303.847 173.633 303.92C173.624 303.984 173.601 304.043 173.564 304.098C173.537 304.152 173.496 304.207 173.441 304.262C173.396 304.307 173.25 304.389 173.004 304.508C172.758 304.617 172.439 304.727 172.047 304.836C171.655 304.945 171.199 305.041 170.68 305.123C170.169 305.214 169.622 305.26 169.039 305.26C168.027 305.26 167.139 305.118 166.373 304.836C165.617 304.553 164.979 304.134 164.459 303.578C163.939 303.022 163.548 302.325 163.283 301.486C163.019 300.648 162.887 299.673 162.887 298.561C162.887 297.503 163.023 296.555 163.297 295.717C163.57 294.869 163.962 294.154 164.473 293.57C164.992 292.978 165.617 292.527 166.346 292.217C167.075 291.898 167.891 291.738 168.793 291.738C169.759 291.738 170.579 291.893 171.254 292.203C171.938 292.513 172.498 292.932 172.936 293.461C173.373 293.98 173.692 294.596 173.893 295.307C174.102 296.008 174.207 296.76 174.207 297.562V297.973ZM171.938 297.303C171.965 296.118 171.701 295.188 171.145 294.514C170.598 293.839 169.782 293.502 168.697 293.502C168.141 293.502 167.654 293.607 167.234 293.816C166.815 294.026 166.464 294.304 166.182 294.65C165.899 294.997 165.68 295.402 165.525 295.867C165.37 296.323 165.284 296.801 165.266 297.303H171.938ZM189.533 298.096C189.533 298.451 189.492 298.697 189.41 298.834C189.328 298.971 189.21 299.039 189.055 299.039H183.34C183.176 299.039 183.053 298.971 182.971 298.834C182.889 298.688 182.848 298.442 182.848 298.096C182.848 297.749 182.889 297.508 182.971 297.371C183.053 297.234 183.176 297.166 183.34 297.166H189.055C189.128 297.166 189.191 297.18 189.246 297.207C189.31 297.234 189.36 297.289 189.396 297.371C189.442 297.444 189.474 297.54 189.492 297.658C189.52 297.777 189.533 297.923 189.533 298.096ZM203.806 305.336C202.817 305.336 201.911 305.093 201.09 304.608C200.269 304.123 199.615 303.357 199.13 302.312C198.663 301.248 198.43 299.885 198.43 298.224C198.43 296.712 198.654 295.387 199.102 294.248C199.55 293.109 200.166 292.167 200.95 291.42C201.734 290.655 202.63 290.085 203.638 289.712C204.665 289.339 205.747 289.152 206.886 289.152C207.782 289.152 208.697 289.273 209.63 289.516C210.563 289.759 211.385 290.235 212.094 290.944C212.617 291.448 213.018 292.027 213.298 292.68C213.597 293.333 213.802 294.089 213.914 294.948C214.045 295.807 214.11 296.805 214.11 297.944C214.11 298.597 214.138 299.195 214.194 299.736C214.269 300.277 214.39 300.763 214.558 301.192C214.726 301.621 214.959 302.004 215.258 302.34C215.538 302.639 215.874 302.872 216.266 303.04C216.658 303.189 217.125 303.264 217.666 303.264C218.282 303.264 218.842 303.115 219.346 302.816C219.85 302.517 220.251 302.013 220.55 301.304C220.849 300.595 220.998 299.615 220.998 298.364C220.998 297.132 220.849 295.993 220.55 294.948C220.251 293.903 219.831 292.951 219.29 292.092C218.767 291.215 218.17 290.412 217.498 289.684L219.682 288.2C220.839 289.675 221.754 291.224 222.426 292.848C223.098 294.472 223.434 296.245 223.434 298.168C223.434 299.755 223.201 301.08 222.734 302.144C222.286 303.208 221.623 304.011 220.746 304.552C219.869 305.075 218.777 305.336 217.47 305.336C216.667 305.336 215.93 305.224 215.258 305C214.605 304.757 214.035 304.403 213.55 303.936C212.953 303.376 212.495 302.601 212.178 301.612C211.861 300.623 211.693 299.419 211.674 298C211.674 297.328 211.637 296.637 211.562 295.928C211.487 295.219 211.338 294.547 211.114 293.912C210.89 293.259 210.535 292.708 210.05 292.26C209.677 291.924 209.229 291.672 208.706 291.504C208.183 291.317 207.539 291.224 206.774 291.224C205.486 291.224 204.385 291.541 203.47 292.176C202.555 292.792 201.855 293.651 201.37 294.752C200.885 295.835 200.642 297.085 200.642 298.504C200.642 299.699 200.782 300.66 201.062 301.388C201.361 302.116 201.753 302.639 202.238 302.956C202.742 303.273 203.302 303.432 203.918 303.432C204.422 303.432 204.851 303.329 205.206 303.124C205.579 302.9 205.859 302.583 206.046 302.172C206.251 301.761 206.354 301.257 206.354 300.66C206.354 299.727 206.111 299.017 205.626 298.532C205.141 298.028 204.515 297.776 203.75 297.776C203.003 297.776 202.303 297.972 201.65 298.364C200.997 298.756 200.399 299.251 199.858 299.848L199.438 298.056C199.998 297.403 200.689 296.871 201.51 296.46C202.35 296.031 203.227 295.816 204.142 295.816C205.486 295.816 206.569 296.227 207.39 297.048C208.23 297.869 208.65 298.98 208.65 300.38C208.65 301.407 208.454 302.293 208.062 303.04C207.67 303.787 207.11 304.356 206.382 304.748C205.673 305.14 204.814 305.336 203.806 305.336ZM238.841 305.336C237.721 305.336 236.713 305.159 235.817 304.804C234.921 304.449 234.212 303.927 233.689 303.236C233.167 302.545 232.905 301.715 232.905 300.744C232.905 299.736 233.167 298.868 233.689 298.14C234.231 297.393 235.08 296.824 236.237 296.432C237.395 296.021 238.925 295.816 240.829 295.816H250.657V297.776H240.633C239.681 297.776 238.869 297.832 238.197 297.944C237.544 298.056 236.984 298.243 236.517 298.504C236.107 298.747 235.799 299.045 235.593 299.4C235.407 299.736 235.313 300.175 235.313 300.716C235.313 301.575 235.668 302.228 236.377 302.676C237.087 303.105 237.983 303.32 239.065 303.32C239.887 303.32 240.587 303.199 241.165 302.956C241.763 302.695 242.22 302.256 242.537 301.64C242.873 301.005 243.041 300.137 243.041 299.036V291.504H238.225V296.544L236.013 296.992V289.488H250.657V291.504H245.421V298.672C245.421 299.923 245.309 300.903 245.085 301.612C244.88 302.321 244.581 302.919 244.189 303.404C243.611 304.113 242.864 304.617 241.949 304.916C241.053 305.196 240.017 305.336 238.841 305.336ZM253.767 305V289.488H268.747V291.504H263.987V305H261.579V291.504H256.175V305H253.767ZM275.263 305.336C274.143 305.336 273.135 305.159 272.239 304.804C271.343 304.449 270.634 303.927 270.111 303.236C269.588 302.545 269.327 301.715 269.327 300.744C269.327 299.736 269.588 298.868 270.111 298.14C270.652 297.393 271.502 296.824 272.659 296.432C273.816 296.021 275.347 295.816 277.251 295.816H281.311C282.935 295.816 284.382 296.021 285.651 296.432C286.92 296.824 287.91 297.487 288.619 298.42C289.347 299.353 289.711 300.632 289.711 302.256C289.711 303.507 289.478 304.552 289.011 305.392C288.544 306.251 287.882 306.997 287.023 307.632C286.407 308.061 285.707 308.407 284.923 308.668C284.158 308.929 283.271 309.107 282.263 309.2C281.255 309.312 280.079 309.368 278.735 309.368H275.571C274.787 309.368 274.18 309.424 273.751 309.536C273.322 309.648 272.948 309.807 272.631 310.012C272.332 310.217 272.099 310.507 271.931 310.88C271.763 311.253 271.679 311.748 271.679 312.364C271.679 312.644 271.688 312.905 271.707 313.148C271.726 313.409 271.744 313.652 271.763 313.876L269.467 313.988C269.411 313.652 269.364 313.279 269.327 312.868C269.29 312.476 269.271 312.121 269.271 311.804C269.271 310.983 269.42 310.283 269.719 309.704C270.018 309.144 270.4 308.687 270.867 308.332C271.203 308.089 271.548 307.893 271.903 307.744C272.276 307.613 272.696 307.511 273.163 307.436C273.648 307.38 274.199 307.352 274.815 307.352H277.867C279.528 307.352 280.891 307.277 281.955 307.128C283.019 306.997 283.878 306.783 284.531 306.484C285.184 306.204 285.726 305.831 286.155 305.364C286.528 304.953 286.808 304.477 286.995 303.936C287.2 303.376 287.303 302.751 287.303 302.06C287.303 301.145 287.116 300.408 286.743 299.848C286.388 299.288 285.903 298.859 285.287 298.56C284.69 298.261 284.018 298.056 283.271 297.944C282.543 297.832 281.796 297.776 281.031 297.776H277.055C276.103 297.776 275.291 297.832 274.619 297.944C273.966 298.056 273.406 298.243 272.939 298.504C272.528 298.747 272.22 299.045 272.015 299.4C271.828 299.736 271.735 300.175 271.735 300.716C271.735 301.575 272.09 302.228 272.799 302.676C273.508 303.105 274.404 303.32 275.487 303.32C276.308 303.32 277.008 303.199 277.587 302.956C278.184 302.695 278.642 302.256 278.959 301.64C279.295 301.005 279.463 300.137 279.463 299.036V291.504H274.647V296.544L272.435 296.992V289.488H287.079V291.504H281.843V298.672C281.843 299.923 281.731 300.903 281.507 301.612C281.302 302.321 281.003 302.919 280.611 303.404C280.032 304.113 279.286 304.617 278.371 304.916C277.475 305.196 276.439 305.336 275.263 305.336ZM286.917 281.396C287.962 281.396 288.989 281.517 289.997 281.76C291.005 282.003 291.91 282.469 292.713 283.16C293.422 283.757 294.01 284.448 294.477 285.232C294.962 286.016 295.326 286.977 295.569 288.116C295.811 289.255 295.933 290.673 295.933 292.372V305H293.525V292.624C293.525 291.205 293.422 289.983 293.217 288.956C293.011 287.929 292.713 287.061 292.321 286.352C291.929 285.624 291.434 285.045 290.837 284.616C290.314 284.224 289.726 283.944 289.073 283.776C288.401 283.589 287.701 283.496 286.973 283.496C285.293 283.496 283.967 283.841 282.997 284.532C282.007 285.223 281.513 286.305 281.513 287.78C281.513 288.265 281.569 288.741 281.681 289.208C281.793 289.675 281.951 290.132 282.157 290.58H279.721C279.534 290.188 279.385 289.721 279.273 289.18C279.161 288.639 279.105 288.135 279.105 287.668C279.105 286.175 279.478 284.971 280.225 284.056C280.953 283.141 281.914 282.469 283.109 282.04C284.303 281.611 285.573 281.396 286.917 281.396ZM305.697 305.336C304.577 305.336 303.569 305.159 302.673 304.804C301.777 304.449 301.067 303.927 300.545 303.236C300.022 302.545 299.761 301.715 299.761 300.744C299.761 299.736 300.022 298.868 300.545 298.14C301.086 297.393 301.935 296.824 303.093 296.432C304.25 296.021 305.781 295.816 307.685 295.816H312.725C313.695 295.816 314.535 295.863 315.245 295.956C315.954 296.049 316.57 296.199 317.093 296.404C317.634 296.591 318.119 296.852 318.549 297.188C319.034 297.561 319.417 298.056 319.697 298.672C319.977 299.269 320.117 299.96 320.117 300.744C320.117 302.163 319.687 303.264 318.829 304.048C317.989 304.832 316.794 305.224 315.245 305.224C314.815 305.224 314.349 305.196 313.845 305.14C313.341 305.084 312.874 304.991 312.445 304.86L312.977 302.984C313.257 303.059 313.574 303.124 313.929 303.18C314.302 303.236 314.666 303.264 315.021 303.264C315.898 303.264 316.561 303.049 317.009 302.62C317.475 302.191 317.709 301.528 317.709 300.632C317.709 299.997 317.569 299.493 317.289 299.12C317.009 298.728 316.635 298.439 316.169 298.252C315.721 298.065 315.207 297.944 314.629 297.888C314.069 297.813 313.499 297.776 312.921 297.776H307.489C306.537 297.776 305.725 297.832 305.053 297.944C304.399 298.056 303.839 298.243 303.373 298.504C302.962 298.747 302.654 299.045 302.449 299.4C302.262 299.736 302.169 300.175 302.169 300.716C302.169 301.575 302.523 302.228 303.233 302.676C303.942 303.105 304.838 303.32 305.921 303.32C306.742 303.32 307.442 303.199 308.021 302.956C308.618 302.695 309.075 302.256 309.393 301.64C309.729 301.024 309.897 300.156 309.897 299.036V291.504H305.081V296.544L302.869 296.992V289.488H317.513V291.504H312.277V298.672C312.277 299.923 312.165 300.903 311.941 301.612C311.735 302.321 311.437 302.919 311.045 303.404C310.466 304.113 309.719 304.617 308.805 304.916C307.909 305.196 306.873 305.336 305.697 305.336ZM310.485 286.016C309.943 286.016 309.495 285.848 309.141 285.512C308.786 285.157 308.609 284.7 308.609 284.14C308.609 283.599 308.786 283.151 309.141 282.796C309.495 282.441 309.943 282.264 310.485 282.264C311.026 282.264 311.474 282.441 311.829 282.796C312.183 283.151 312.361 283.599 312.361 284.14C312.361 284.7 312.183 285.157 311.829 285.512C311.474 285.848 311.026 286.016 310.485 286.016ZM328.802 305.336C327.682 305.336 326.674 305.159 325.778 304.804C324.882 304.449 324.173 303.927 323.65 303.236C323.127 302.545 322.866 301.715 322.866 300.744C322.866 299.736 323.127 298.868 323.65 298.14C324.191 297.393 325.041 296.824 326.198 296.432C327.355 296.021 328.886 295.816 330.79 295.816H335.83C336.801 295.816 337.641 295.863 338.35 295.956C339.059 296.049 339.675 296.199 340.198 296.404C340.739 296.591 341.225 296.852 341.654 297.188C342.139 297.561 342.522 298.056 342.802 298.672C343.082 299.269 343.222 299.96 343.222 300.744C343.222 302.163 342.793 303.264 341.934 304.048C341.094 304.832 339.899 305.224 338.35 305.224C337.921 305.224 337.454 305.196 336.95 305.14C336.446 305.084 335.979 304.991 335.55 304.86L336.082 302.984C336.362 303.059 336.679 303.124 337.034 303.18C337.407 303.236 337.771 303.264 338.126 303.264C339.003 303.264 339.666 303.049 340.114 302.62C340.581 302.191 340.814 301.528 340.814 300.632C340.814 299.997 340.674 299.493 340.394 299.12C340.114 298.728 339.741 298.439 339.274 298.252C338.826 298.065 338.313 297.944 337.734 297.888C337.174 297.813 336.605 297.776 336.026 297.776H330.594C329.642 297.776 328.83 297.832 328.158 297.944C327.505 298.056 326.945 298.243 326.478 298.504C326.067 298.747 325.759 299.045 325.554 299.4C325.367 299.736 325.274 300.175 325.274 300.716C325.274 301.575 325.629 302.228 326.338 302.676C327.047 303.105 327.943 303.32 329.026 303.32C329.847 303.32 330.547 303.199 331.126 302.956C331.723 302.695 332.181 302.256 332.498 301.64C332.834 301.024 333.002 300.156 333.002 299.036V291.504H328.186V296.544L325.974 296.992V289.488H340.618V291.504H335.382V298.672C335.382 299.923 335.27 300.903 335.046 301.612C334.841 302.321 334.542 302.919 334.15 303.404C333.571 304.113 332.825 304.617 331.91 304.916C331.014 305.196 329.978 305.336 328.802 305.336ZM351.572 305.336C350.582 305.336 349.677 305.093 348.856 304.608C348.034 304.104 347.381 303.329 346.896 302.284C346.429 301.239 346.196 299.876 346.196 298.196C346.196 296.348 346.597 294.752 347.4 293.408C348.221 292.045 349.369 291 350.844 290.272C352.318 289.525 354.045 289.152 356.024 289.152C356.901 289.152 357.741 289.227 358.544 289.376C359.365 289.507 360.149 289.721 360.896 290.02C361.661 290.3 362.408 290.673 363.136 291.14L364.284 292.148C365.348 293.119 366.178 294.239 366.776 295.508C367.392 296.759 367.7 298.159 367.7 299.708C367.7 300.959 367.513 302.004 367.14 302.844C366.785 303.665 366.262 304.291 365.572 304.72C364.9 305.131 364.097 305.336 363.164 305.336C362.081 305.336 361.194 305.093 360.504 304.608C359.832 304.123 359.328 303.469 358.992 302.648C358.674 301.808 358.516 300.856 358.516 299.792C358.516 298.803 358.618 297.86 358.824 296.964C359.029 296.068 359.337 295.228 359.748 294.444C360.158 293.66 360.672 292.941 361.288 292.288L362.632 291.14C363.509 290.487 364.461 289.992 365.488 289.656C366.514 289.32 367.634 289.152 368.848 289.152C369.688 289.152 370.453 289.227 371.144 289.376C371.853 289.507 372.516 289.721 373.132 290.02C373.766 290.3 374.373 290.655 374.952 291.084L375.904 291.896C376.669 292.568 377.304 293.315 377.808 294.136C378.312 294.957 378.685 295.835 378.928 296.768C379.189 297.701 379.32 298.681 379.32 299.708C379.32 300.959 379.133 302.004 378.76 302.844C378.405 303.665 377.882 304.291 377.192 304.72C376.52 305.131 375.708 305.336 374.756 305.336C373.692 305.336 372.814 305.093 372.124 304.608C371.452 304.123 370.948 303.469 370.612 302.648C370.294 301.808 370.136 300.856 370.136 299.792C370.136 298.821 370.248 297.879 370.472 296.964C370.696 296.049 371.032 295.172 371.48 294.332C371.928 293.492 372.497 292.708 373.188 291.98L374.196 291C374.961 290.384 375.764 289.927 376.604 289.628C377.462 289.311 378.386 289.152 379.376 289.152C381 289.152 382.372 289.516 383.492 290.244C384.612 290.972 385.461 292.045 386.04 293.464C386.618 294.883 386.908 296.619 386.908 298.672C386.908 300.483 386.665 302.125 386.18 303.6C385.713 305.056 385.06 306.363 384.22 307.52L382.848 309.284C381.84 310.087 380.757 310.777 379.6 311.356C378.461 311.953 377.126 312.448 375.596 312.84C374.065 313.232 372.236 313.521 370.108 313.708C367.98 313.895 365.422 313.988 362.436 313.988H357.62C355.417 313.988 353.55 313.904 352.02 313.736C350.489 313.568 349.257 313.307 348.324 312.952C347.39 312.616 346.709 312.168 346.28 311.608C345.869 311.067 345.664 310.423 345.664 309.676C345.664 309.265 345.738 308.911 345.888 308.612C346.037 308.313 346.252 308.071 346.532 307.884C346.793 307.697 347.101 307.557 347.456 307.464C347.81 307.389 348.389 307.352 349.192 307.352H391.864L392.088 309.368H382.512H379.292H348.968C348.744 309.368 348.52 309.396 348.296 309.452C348.09 309.527 347.988 309.723 347.988 310.04C347.988 310.32 348.156 310.572 348.492 310.796C348.828 311.039 349.425 311.244 350.284 311.412C351.142 311.58 352.328 311.711 353.84 311.804C355.37 311.897 357.321 311.944 359.692 311.944H361.204C363.668 311.944 365.824 311.888 367.672 311.776C369.52 311.683 371.134 311.524 372.516 311.3C373.916 311.095 375.148 310.824 376.212 310.488C377.294 310.152 378.293 309.76 379.208 309.312L381.224 307.492C381.914 306.745 382.493 305.924 382.96 305.028C383.445 304.132 383.809 303.161 384.052 302.116C384.313 301.052 384.444 299.932 384.444 298.756C384.444 297.412 384.313 296.264 384.052 295.312C383.79 294.341 383.417 293.557 382.932 292.96C382.465 292.363 381.914 291.924 381.28 291.644C380.664 291.364 379.992 291.224 379.264 291.224C378.704 291.224 378.116 291.308 377.5 291.476C376.884 291.625 376.286 291.905 375.708 292.316L374.588 293.324C374.102 293.884 373.701 294.5 373.384 295.172C373.085 295.825 372.861 296.535 372.712 297.3C372.562 298.047 372.488 298.849 372.488 299.708C372.488 300.996 372.684 301.939 373.076 302.536C373.486 303.133 374.018 303.432 374.672 303.432C375.269 303.432 375.726 303.255 376.044 302.9C376.38 302.545 376.613 302.097 376.744 301.556C376.874 301.015 376.94 300.464 376.94 299.904C376.94 298.84 376.8 297.851 376.52 296.936C376.24 296.021 375.866 295.219 375.4 294.528C374.952 293.837 374.457 293.296 373.916 292.904C373.132 292.269 372.31 291.831 371.452 291.588C370.612 291.327 369.762 291.196 368.904 291.196C367.858 291.196 366.888 291.327 365.992 291.588C365.114 291.849 364.256 292.316 363.416 292.988C362.8 293.511 362.305 294.145 361.932 294.892C361.558 295.62 361.288 296.404 361.12 297.244C360.952 298.065 360.868 298.887 360.868 299.708C360.868 300.996 361.064 301.939 361.456 302.536C361.848 303.133 362.389 303.432 363.08 303.432C363.658 303.432 364.106 303.255 364.424 302.9C364.76 302.545 364.993 302.097 365.124 301.556C365.254 301.015 365.32 300.464 365.32 299.904C365.32 298.411 365.03 297.076 364.452 295.9C363.892 294.724 363.07 293.716 361.988 292.876C361.11 292.26 360.149 291.831 359.104 291.588C358.058 291.345 356.938 291.224 355.744 291.224C354.362 291.224 353.158 291.476 352.132 291.98C351.105 292.484 350.284 293.175 349.668 294.052C349.07 294.929 348.678 295.937 348.492 297.076C348.473 297.356 348.454 297.627 348.436 297.888C348.417 298.131 348.408 298.327 348.408 298.476C348.408 299.689 348.548 300.66 348.828 301.388C349.126 302.116 349.518 302.639 350.004 302.956C350.508 303.273 351.068 303.432 351.684 303.432C352.188 303.432 352.617 303.329 352.972 303.124C353.345 302.9 353.625 302.583 353.812 302.172C354.017 301.761 354.12 301.257 354.12 300.66C354.12 299.727 353.877 299.017 353.392 298.532C352.906 298.028 352.281 297.776 351.516 297.776C350.769 297.776 350.069 297.972 349.416 298.364C348.762 298.756 348.165 299.251 347.624 299.848L347.204 298.056C347.764 297.403 348.454 296.871 349.276 296.46C350.116 296.031 350.993 295.816 351.908 295.816C353.252 295.816 354.334 296.227 355.156 297.048C355.996 297.869 356.416 298.98 356.416 300.38C356.416 301.407 356.22 302.293 355.828 303.04C355.436 303.787 354.876 304.356 354.148 304.748C353.438 305.14 352.58 305.336 351.572 305.336ZM391.276 309.368V289.488H393.684V309.368H391.276ZM412.383 289.152C413.783 289.152 414.931 289.516 415.827 290.244C416.723 290.953 417.385 291.952 417.815 293.24C418.244 294.509 418.459 295.984 418.459 297.664C418.459 298.971 418.319 300.091 418.039 301.024C417.759 301.957 417.311 302.723 416.695 303.32C416.265 303.749 415.771 304.085 415.211 304.328C414.651 304.571 413.988 304.748 413.223 304.86C412.476 304.953 411.561 305 410.479 305H398.607V289.488H401.015V302.984H407.343V295.06C407.343 293.903 407.445 292.988 407.651 292.316C407.875 291.625 408.192 291.047 408.603 290.58C409.032 290.113 409.545 289.759 410.143 289.516C410.74 289.273 411.487 289.152 412.383 289.152ZM412.327 291.168C412.009 291.168 411.701 291.224 411.403 291.336C411.104 291.429 410.852 291.588 410.647 291.812C410.348 292.148 410.124 292.568 409.975 293.072C409.825 293.557 409.751 294.379 409.751 295.536V302.984H411.067C412.336 302.984 413.325 302.807 414.035 302.452C414.744 302.097 415.248 301.519 415.547 300.716C415.845 299.913 415.995 298.849 415.995 297.524C415.995 296.329 415.864 295.256 415.603 294.304C415.36 293.352 414.968 292.596 414.427 292.036C413.904 291.457 413.204 291.168 412.327 291.168ZM408.183 286.016C407.641 286.016 407.193 285.848 406.839 285.512C406.484 285.157 406.307 284.7 406.307 284.14C406.307 283.599 406.484 283.151 406.839 282.796C407.193 282.441 407.641 282.264 408.183 282.264C408.724 282.264 409.172 282.441 409.527 282.796C409.881 283.151 410.059 283.599 410.059 284.14C410.059 284.7 409.881 285.157 409.527 285.512C409.172 285.848 408.724 286.016 408.183 286.016ZM427.15 305.336C426.16 305.336 425.255 305.093 424.434 304.608C423.612 304.104 422.959 303.329 422.474 302.284C422.007 301.239 421.774 299.876 421.774 298.196C421.774 296.348 422.175 294.752 422.978 293.408C423.799 292.045 424.947 291 426.422 290.272C427.896 289.525 429.623 289.152 431.602 289.152C432.498 289.152 433.347 289.227 434.15 289.376C434.971 289.507 435.755 289.721 436.502 290.02C437.248 290.3 437.986 290.673 438.714 291.14L439.666 291.98C440.73 292.932 441.598 294.043 442.27 295.312C442.942 296.563 443.278 298.028 443.278 299.708C443.278 300.959 443.091 302.004 442.718 302.844C442.363 303.665 441.84 304.291 441.15 304.72C440.478 305.131 439.675 305.336 438.742 305.336C437.659 305.336 436.772 305.093 436.082 304.608C435.41 304.123 434.906 303.469 434.57 302.648C434.252 301.808 434.094 300.856 434.094 299.792C434.094 298.709 434.215 297.711 434.458 296.796C434.7 295.881 435.036 295.041 435.466 294.276C435.914 293.492 436.408 292.801 436.95 292.204L438.042 291.084C438.714 290.487 439.488 290.02 440.366 289.684C441.243 289.329 442.223 289.152 443.306 289.152C444.948 289.152 446.33 289.516 447.45 290.244C448.57 290.972 449.419 292.045 449.998 293.464C450.576 294.883 450.866 296.619 450.866 298.672C450.866 300.483 450.623 302.125 450.138 303.6C449.671 305.056 449.018 306.363 448.178 307.52L446.834 309.256C445.676 310.339 444.295 311.225 442.69 311.916C441.103 312.625 439.358 313.148 437.454 313.484C435.55 313.82 433.552 313.988 431.462 313.988H430.678C429.315 313.988 428.055 313.904 426.898 313.736C425.759 313.587 424.76 313.335 423.902 312.98C423.062 312.644 422.408 312.196 421.942 311.636C421.475 311.095 421.242 310.441 421.242 309.676C421.242 309.265 421.316 308.911 421.466 308.612C421.615 308.313 421.83 308.071 422.11 307.884C422.371 307.697 422.679 307.557 423.034 307.464C423.388 307.389 423.967 307.352 424.77 307.352H455.682L455.934 309.368H445.742H443.334H424.546C424.322 309.368 424.098 309.396 423.874 309.452C423.668 309.527 423.566 309.723 423.566 310.04C423.566 310.395 423.818 310.712 424.322 310.992C424.826 311.291 425.61 311.524 426.674 311.692C427.738 311.86 429.11 311.944 430.79 311.944H431.714C433.394 311.944 434.934 311.841 436.334 311.636C437.734 311.431 439.012 311.123 440.17 310.712C441.327 310.32 442.354 309.844 443.25 309.284L445.182 307.492C445.872 306.745 446.451 305.924 446.918 305.028C447.403 304.132 447.767 303.161 448.01 302.116C448.271 301.052 448.402 299.932 448.402 298.756C448.402 297.412 448.271 296.264 448.01 295.312C447.748 294.341 447.375 293.557 446.89 292.96C446.423 292.363 445.872 291.924 445.238 291.644C444.622 291.364 443.95 291.224 443.222 291.224C442.494 291.224 441.831 291.327 441.234 291.532C440.636 291.719 440.067 292.017 439.526 292.428L438.63 293.184C438.182 293.707 437.79 294.313 437.454 295.004C437.136 295.676 436.884 296.404 436.698 297.188C436.53 297.972 436.446 298.812 436.446 299.708C436.446 300.996 436.642 301.939 437.034 302.536C437.426 303.133 437.967 303.432 438.658 303.432C439.236 303.432 439.684 303.255 440.002 302.9C440.338 302.545 440.571 302.097 440.702 301.556C440.832 301.015 440.898 300.464 440.898 299.904C440.898 298.915 440.767 298 440.506 297.16C440.263 296.301 439.89 295.517 439.386 294.808C438.9 294.08 438.294 293.436 437.566 292.876C436.688 292.26 435.727 291.831 434.682 291.588C433.636 291.345 432.516 291.224 431.322 291.224C429.94 291.224 428.736 291.476 427.71 291.98C426.683 292.484 425.862 293.175 425.246 294.052C424.648 294.929 424.256 295.937 424.07 297.076C424.051 297.356 424.032 297.627 424.014 297.888C423.995 298.131 423.986 298.327 423.986 298.476C423.986 299.689 424.126 300.66 424.406 301.388C424.704 302.116 425.096 302.639 425.582 302.956C426.086 303.273 426.646 303.432 427.262 303.432C427.766 303.432 428.195 303.329 428.55 303.124C428.923 302.9 429.203 302.583 429.39 302.172C429.595 301.761 429.698 301.257 429.698 300.66C429.698 299.727 429.455 299.017 428.97 298.532C428.484 298.028 427.859 297.776 427.094 297.776C426.347 297.776 425.647 297.972 424.994 298.364C424.34 298.756 423.743 299.251 423.202 299.848L422.782 298.056C423.342 297.403 424.032 296.871 424.854 296.46C425.694 296.031 426.571 295.816 427.486 295.816C428.83 295.816 429.912 296.227 430.734 297.048C431.574 297.869 431.994 298.98 431.994 300.38C431.994 301.407 431.798 302.293 431.406 303.04C431.014 303.787 430.454 304.356 429.726 304.748C429.016 305.14 428.158 305.336 427.15 305.336ZM455.234 309.368V289.488H457.642V309.368H455.234ZM142.444 343.864C143.396 343.864 144.254 344.107 145.02 344.592C145.804 345.077 146.429 345.796 146.896 346.748C147.362 347.7 147.596 348.867 147.596 350.248C147.596 351.928 147.353 353.253 146.868 354.224C146.382 355.195 145.701 355.997 144.824 356.632C144.226 357.061 143.536 357.407 142.752 357.668C141.986 357.929 141.1 358.107 140.092 358.2C139.084 358.312 137.908 358.368 136.564 358.368H134.464C133.68 358.368 133.073 358.424 132.644 358.536C132.214 358.648 131.841 358.807 131.524 359.012C131.225 359.217 130.992 359.507 130.824 359.88C130.656 360.253 130.572 360.748 130.572 361.364C130.572 361.644 130.581 361.905 130.6 362.148C130.618 362.409 130.637 362.652 130.656 362.876L128.36 362.988C128.304 362.652 128.257 362.279 128.22 361.868C128.182 361.476 128.164 361.121 128.164 360.804C128.164 359.983 128.313 359.283 128.612 358.704C128.91 358.144 129.293 357.687 129.76 357.332C130.096 357.089 130.441 356.893 130.796 356.744C131.169 356.613 131.589 356.511 132.056 356.436C132.541 356.38 133.092 356.352 133.708 356.352H136.312C137.842 356.352 139.084 356.287 140.036 356.156C141.006 356.025 141.79 355.811 142.388 355.512C142.985 355.232 143.498 354.859 143.928 354.392C144.301 353.981 144.6 353.449 144.824 352.796C145.066 352.124 145.188 351.303 145.188 350.332C145.188 349.361 145.057 348.549 144.796 347.896C144.553 347.243 144.18 346.748 143.676 346.412C143.19 346.076 142.584 345.908 141.856 345.908C141.333 345.908 140.801 346.029 140.26 346.272C139.737 346.496 139.28 346.767 138.888 347.084L138.804 344.984C139.289 344.685 139.83 344.424 140.428 344.2C141.025 343.976 141.697 343.864 142.444 343.864ZM129.312 354V338.488H143.9V340.504H139V354H136.592V340.504H131.72V354H129.312ZM144.797 330.396C145.843 330.396 146.869 330.517 147.877 330.76C148.885 331.003 149.791 331.469 150.593 332.16C151.303 332.757 151.891 333.448 152.357 334.232C152.843 335.016 153.207 335.977 153.449 337.116C153.692 338.255 153.813 339.673 153.813 341.372V354H151.405V341.624C151.405 340.205 151.303 338.983 151.097 337.956C150.892 336.929 150.593 336.061 150.201 335.352C149.809 334.624 149.315 334.045 148.717 333.616C148.195 333.224 147.607 332.944 146.953 332.776C146.281 332.589 145.581 332.496 144.853 332.496C143.173 332.496 141.848 332.841 140.877 333.532C139.888 334.223 139.393 335.305 139.393 336.78C139.393 337.265 139.449 337.741 139.561 338.208C139.673 338.675 139.832 339.132 140.037 339.58H137.601C137.415 339.188 137.265 338.721 137.153 338.18C137.041 337.639 136.985 337.135 136.985 336.668C136.985 335.175 137.359 333.971 138.105 333.056C138.833 332.141 139.795 331.469 140.989 331.04C142.184 330.611 143.453 330.396 144.797 330.396ZM163.242 354.336C162.252 354.336 161.347 354.093 160.526 353.608C159.704 353.104 159.051 352.329 158.566 351.284C158.099 350.239 157.866 348.876 157.866 347.196C157.866 345.348 158.267 343.752 159.07 342.408C159.891 341.045 161.039 340 162.514 339.272C163.988 338.525 165.715 338.152 167.694 338.152C168.59 338.152 169.439 338.227 170.242 338.376C171.044 338.507 171.819 338.712 172.566 338.992C173.312 339.272 174.031 339.636 174.722 340.084L175.73 340.952C176.906 341.904 177.802 343.052 178.418 344.396C179.052 345.74 179.37 347.177 179.37 348.708C179.37 349.959 179.183 351.004 178.81 351.844C178.455 352.665 177.932 353.291 177.242 353.72C176.57 354.131 175.767 354.336 174.834 354.336C173.751 354.336 172.864 354.093 172.174 353.608C171.502 353.123 170.998 352.469 170.662 351.648C170.344 350.808 170.186 349.856 170.186 348.792C170.186 347.691 170.298 346.692 170.522 345.796C170.764 344.881 171.091 344.051 171.502 343.304C171.931 342.539 172.426 341.839 172.986 341.204L174.19 340.056C174.936 339.44 175.748 338.973 176.626 338.656C177.503 338.32 178.446 338.152 179.454 338.152C181.208 338.152 182.636 338.525 183.738 339.272C184.839 340 185.651 340.971 186.174 342.184C186.696 343.397 186.958 344.723 186.958 346.16C186.958 347.448 186.827 348.596 186.566 349.604C186.323 350.593 186.006 351.48 185.614 352.264C185.24 353.029 184.839 353.72 184.41 354.336L182.394 353.104C182.991 352.264 183.486 351.312 183.878 350.248C184.288 349.165 184.494 347.84 184.494 346.272C184.494 345.04 184.288 343.976 183.878 343.08C183.467 342.165 182.87 341.465 182.086 340.98C181.32 340.476 180.378 340.224 179.258 340.224C178.399 340.224 177.652 340.336 177.018 340.56C176.402 340.784 175.767 341.167 175.114 341.708C174.516 342.324 174.022 342.996 173.63 343.724C173.256 344.452 172.976 345.236 172.79 346.076C172.622 346.897 172.538 347.775 172.538 348.708C172.538 349.996 172.734 350.939 173.126 351.536C173.518 352.133 174.059 352.432 174.75 352.432C175.328 352.432 175.776 352.255 176.094 351.9C176.43 351.545 176.663 351.097 176.794 350.556C176.924 350.015 176.99 349.464 176.99 348.904C176.99 347.411 176.7 346.076 176.122 344.9C175.562 343.724 174.74 342.716 173.658 341.876C172.78 341.26 171.819 340.831 170.774 340.588C169.728 340.345 168.608 340.224 167.414 340.224C166.032 340.224 164.828 340.476 163.802 340.98C162.775 341.484 161.954 342.175 161.338 343.052C160.74 343.929 160.348 344.937 160.162 346.076C160.143 346.356 160.124 346.627 160.106 346.888C160.087 347.131 160.078 347.327 160.078 347.476C160.078 348.689 160.218 349.66 160.498 350.388C160.796 351.116 161.198 351.639 161.702 351.956C162.206 352.273 162.766 352.432 163.382 352.432C163.886 352.432 164.315 352.329 164.67 352.124C165.024 351.9 165.295 351.583 165.482 351.172C165.687 350.761 165.79 350.257 165.79 349.66C165.79 348.727 165.547 348.017 165.062 347.532C164.576 347.028 163.951 346.776 163.186 346.776C162.439 346.776 161.739 346.972 161.086 347.364C160.432 347.756 159.835 348.251 159.294 348.848L158.874 347.056C159.434 346.403 160.124 345.871 160.946 345.46C161.786 345.031 162.663 344.816 163.578 344.816C164.922 344.816 166.004 345.227 166.826 346.048C167.666 346.869 168.086 347.98 168.086 349.38C168.086 350.407 167.89 351.293 167.498 352.04C167.106 352.787 166.546 353.356 165.818 353.748C165.108 354.14 164.25 354.336 163.242 354.336ZM195.726 354.336C194.737 354.336 193.831 354.093 193.01 353.608C192.189 353.104 191.535 352.329 191.05 351.284C190.583 350.239 190.35 348.876 190.35 347.196C190.35 345.348 190.751 343.752 191.554 342.408C192.375 341.045 193.523 340 194.998 339.272C196.473 338.525 198.199 338.152 200.178 338.152C201.074 338.152 201.923 338.227 202.726 338.376C203.547 338.507 204.331 338.721 205.078 339.02C205.825 339.3 206.562 339.673 207.29 340.14L208.578 341.316C209.567 342.193 210.361 343.267 210.958 344.536C211.555 345.787 211.854 347.177 211.854 348.708C211.854 349.959 211.667 351.004 211.294 351.844C210.939 352.665 210.417 353.291 209.726 353.72C209.054 354.131 208.251 354.336 207.318 354.336C206.235 354.336 205.349 354.093 204.658 353.608C203.986 353.123 203.482 352.469 203.146 351.648C202.829 350.808 202.67 349.856 202.67 348.792C202.67 347.803 202.773 346.869 202.978 345.992C203.202 345.115 203.529 344.284 203.958 343.5C204.387 342.716 204.919 341.979 205.554 341.288L206.954 340.14C207.514 339.804 208.111 339.515 208.746 339.272C209.381 339.029 210.146 338.843 211.042 338.712C211.957 338.563 213.095 338.488 214.458 338.488H222.83V340.504H218.07V354H215.662V340.504H213.814C213.198 340.504 212.619 340.532 212.078 340.588C211.537 340.625 211.023 340.7 210.538 340.812C210.053 340.905 209.586 341.045 209.138 341.232C208.69 341.419 208.251 341.661 207.822 341.96C207.206 342.352 206.693 342.912 206.282 343.64C205.871 344.349 205.554 345.152 205.33 346.048C205.125 346.925 205.022 347.812 205.022 348.708C205.022 349.996 205.218 350.939 205.61 351.536C206.002 352.133 206.543 352.432 207.234 352.432C207.813 352.432 208.261 352.255 208.578 351.9C208.914 351.545 209.147 351.097 209.278 350.556C209.409 350.015 209.474 349.464 209.474 348.904C209.474 347.429 209.185 346.104 208.606 344.928C208.046 343.733 207.225 342.716 206.142 341.876C205.265 341.26 204.303 340.831 203.258 340.588C202.213 340.345 201.093 340.224 199.898 340.224C198.517 340.224 197.313 340.476 196.286 340.98C195.259 341.484 194.438 342.175 193.822 343.052C193.225 343.929 192.833 344.937 192.646 346.076C192.627 346.356 192.609 346.627 192.59 346.888C192.571 347.131 192.562 347.327 192.562 347.476C192.562 348.689 192.702 349.66 192.982 350.388C193.281 351.116 193.673 351.639 194.158 351.956C194.662 352.273 195.222 352.432 195.838 352.432C196.342 352.432 196.771 352.329 197.126 352.124C197.499 351.9 197.779 351.583 197.966 351.172C198.171 350.761 198.274 350.257 198.274 349.66C198.274 348.727 198.031 348.017 197.546 347.532C197.061 347.028 196.435 346.776 195.67 346.776C194.923 346.776 194.223 346.972 193.57 347.364C192.917 347.756 192.319 348.251 191.778 348.848L191.358 347.056C191.918 346.403 192.609 345.871 193.43 345.46C194.27 345.031 195.147 344.816 196.062 344.816C197.406 344.816 198.489 345.227 199.31 346.048C200.15 346.869 200.57 347.98 200.57 349.38C200.57 350.407 200.374 351.293 199.982 352.04C199.59 352.787 199.03 353.356 198.302 353.748C197.593 354.14 196.734 354.336 195.726 354.336ZM229.367 354.336C228.247 354.336 227.239 354.159 226.343 353.804C225.447 353.449 224.737 352.927 224.215 352.236C223.692 351.545 223.431 350.715 223.431 349.744C223.431 348.736 223.692 347.868 224.215 347.14C224.756 346.393 225.605 345.824 226.763 345.432C227.92 345.021 229.451 344.816 231.355 344.816H236.395C237.365 344.816 238.205 344.863 238.915 344.956C239.624 345.049 240.24 345.199 240.763 345.404C241.304 345.591 241.789 345.852 242.219 346.188C242.704 346.561 243.087 347.056 243.367 347.672C243.647 348.269 243.787 348.96 243.787 349.744C243.787 351.163 243.357 352.264 242.499 353.048C241.659 353.832 240.464 354.224 238.915 354.224C238.485 354.224 238.019 354.196 237.515 354.14C237.011 354.084 236.544 353.991 236.115 353.86L236.647 351.984C236.927 352.059 237.244 352.124 237.599 352.18C237.972 352.236 238.336 352.264 238.691 352.264C239.568 352.264 240.231 352.049 240.679 351.62C241.145 351.191 241.379 350.528 241.379 349.632C241.379 348.997 241.239 348.493 240.959 348.12C240.679 347.728 240.305 347.439 239.839 347.252C239.391 347.065 238.877 346.944 238.299 346.888C237.739 346.813 237.169 346.776 236.591 346.776H231.159C230.207 346.776 229.395 346.832 228.723 346.944C228.069 347.056 227.509 347.243 227.043 347.504C226.632 347.747 226.324 348.045 226.119 348.4C225.932 348.736 225.839 349.175 225.839 349.716C225.839 350.575 226.193 351.228 226.903 351.676C227.612 352.105 228.508 352.32 229.591 352.32C230.412 352.32 231.112 352.199 231.691 351.956C232.288 351.695 232.745 351.256 233.063 350.64C233.399 350.024 233.567 349.156 233.567 348.036V340.504H228.751V345.544L226.539 345.992V338.488H241.183V340.504H235.947V347.672C235.947 348.923 235.835 349.903 235.611 350.612C235.405 351.321 235.107 351.919 234.715 352.404C234.136 353.113 233.389 353.617 232.475 353.916C231.579 354.196 230.543 354.336 229.367 354.336ZM234.155 335.016C233.613 335.016 233.165 334.848 232.811 334.512C232.456 334.157 232.279 333.7 232.279 333.14C232.279 332.599 232.456 332.151 232.811 331.796C233.165 331.441 233.613 331.264 234.155 331.264C234.696 331.264 235.144 331.441 235.499 331.796C235.853 332.151 236.031 332.599 236.031 333.14C236.031 333.7 235.853 334.157 235.499 334.512C235.144 334.848 234.696 335.016 234.155 335.016ZM259.136 354.336C257.997 354.336 256.98 354.159 256.084 353.804C255.188 353.449 254.479 352.927 253.956 352.236C253.433 351.545 253.172 350.715 253.172 349.744C253.172 348.736 253.433 347.868 253.956 347.14C254.497 346.393 255.347 345.824 256.504 345.432C257.68 345.021 259.211 344.816 261.096 344.816H264.596C266.22 344.816 267.601 345.04 268.74 345.488C269.879 345.936 270.803 346.543 271.512 347.308C272.221 348.073 272.735 348.941 273.052 349.912C273.388 350.864 273.556 351.853 273.556 352.88C273.556 354.373 273.323 355.68 272.856 356.8C272.408 357.92 271.783 358.872 270.98 359.656C270.177 360.459 269.244 361.103 268.18 361.588C267.116 362.073 265.968 362.428 264.736 362.652C263.523 362.876 262.281 362.988 261.012 362.988H260.2C258.221 362.988 256.495 362.736 255.02 362.232C253.545 361.747 252.295 361.075 251.268 360.216C250.26 359.376 249.448 358.415 248.832 357.332C248.216 356.249 247.768 355.111 247.488 353.916C247.208 352.721 247.068 351.536 247.068 350.36V349.772C247.068 348.241 247.255 346.804 247.628 345.46C248.001 344.116 248.487 342.865 249.084 341.708C249.681 340.532 250.307 339.459 250.96 338.488L253.004 339.72C252.257 340.765 251.623 341.848 251.1 342.968C250.577 344.069 250.176 345.199 249.896 346.356C249.616 347.495 249.476 348.643 249.476 349.8V350.332C249.476 351.732 249.681 353.057 250.092 354.308C250.521 355.577 251.175 356.697 252.052 357.668C252.929 358.657 254.068 359.432 255.468 359.992C256.868 360.552 258.548 360.832 260.508 360.832H260.844C262.431 360.832 263.849 360.664 265.1 360.328C266.369 359.992 267.443 359.488 268.32 358.816C269.216 358.163 269.897 357.332 270.364 356.324C270.849 355.335 271.092 354.177 271.092 352.852C271.092 351.452 270.803 350.304 270.224 349.408C269.645 348.512 268.843 347.849 267.816 347.42C266.808 346.991 265.66 346.776 264.372 346.776H260.9C259.948 346.776 259.136 346.832 258.464 346.944C257.811 347.056 257.251 347.243 256.784 347.504C256.373 347.747 256.065 348.045 255.86 348.4C255.673 348.736 255.58 349.175 255.58 349.716C255.58 350.575 255.935 351.228 256.644 351.676C257.353 352.105 258.249 352.32 259.332 352.32C260.153 352.32 260.853 352.199 261.432 351.956C262.029 351.695 262.487 351.256 262.804 350.64C263.14 350.005 263.308 349.137 263.308 348.036V340.504H258.492V345.544L256.28 345.992V338.488H270.924V340.504H265.688V347.672C265.688 348.923 265.576 349.903 265.352 350.612C265.147 351.321 264.848 351.919 264.456 352.404C263.877 353.113 263.131 353.617 262.216 353.916C261.32 354.196 260.293 354.336 259.136 354.336ZM290.847 338.152C292.265 338.152 293.46 338.507 294.431 339.216C295.42 339.925 296.167 340.952 296.671 342.296C297.175 343.621 297.427 345.245 297.427 347.168C297.427 349.445 297.137 351.312 296.559 352.768C295.98 354.205 295.196 355.335 294.207 356.156C293.497 356.735 292.695 357.183 291.799 357.5C290.903 357.836 289.941 358.06 288.915 358.172C287.907 358.303 286.852 358.368 285.751 358.368H282.447C281.663 358.368 281.056 358.424 280.627 358.536C280.197 358.648 279.824 358.807 279.507 359.012C279.208 359.217 278.975 359.507 278.807 359.88C278.639 360.253 278.555 360.748 278.555 361.364C278.555 361.644 278.564 361.905 278.583 362.148C278.601 362.409 278.62 362.652 278.639 362.876L276.343 362.988C276.287 362.652 276.24 362.279 276.203 361.868C276.165 361.476 276.147 361.121 276.147 360.804C276.147 359.983 276.296 359.283 276.595 358.704C276.893 358.144 277.276 357.687 277.743 357.332C278.079 357.089 278.424 356.893 278.779 356.744C279.152 356.613 279.572 356.511 280.039 356.436C280.524 356.38 281.075 356.352 281.691 356.352H285.135C286.871 356.352 288.355 356.221 289.587 355.96C290.819 355.717 291.827 355.269 292.611 354.616C293.413 353.963 294.001 353.029 294.375 351.816C294.748 350.584 294.935 349.007 294.935 347.084C294.935 345.385 294.748 344.032 294.375 343.024C294.02 342.016 293.516 341.288 292.863 340.84C292.228 340.392 291.491 340.168 290.651 340.168C290.165 340.168 289.708 340.252 289.279 340.42C288.849 340.569 288.476 340.821 288.159 341.176C287.785 341.605 287.524 342.109 287.375 342.688C287.225 343.267 287.151 344.06 287.151 345.068V354H284.743V345.012C284.743 344.097 284.696 343.323 284.603 342.688C284.509 342.035 284.323 341.503 284.043 341.092C283.856 340.812 283.613 340.588 283.315 340.42C283.016 340.252 282.652 340.168 282.223 340.168C281.793 340.168 281.429 340.252 281.131 340.42C280.851 340.569 280.608 340.775 280.403 341.036C280.104 341.447 279.908 341.979 279.815 342.632C279.74 343.285 279.703 344.023 279.703 344.844V354H277.295V344.452C277.295 343.537 277.332 342.772 277.407 342.156C277.5 341.54 277.659 341.008 277.883 340.56C278.107 340.112 278.405 339.701 278.779 339.328C279.171 338.936 279.637 338.647 280.179 338.46C280.72 338.255 281.336 338.152 282.027 338.152C282.755 338.152 283.399 338.283 283.959 338.544C284.519 338.805 285.004 339.197 285.415 339.72C285.825 340.224 286.152 340.849 286.395 341.596L285.807 341.4C286.012 340.784 286.329 340.233 286.759 339.748C287.207 339.244 287.767 338.852 288.439 338.572C289.129 338.292 289.932 338.152 290.847 338.152ZM306.195 354.336C305.205 354.336 304.3 354.093 303.479 353.608C302.657 353.104 302.004 352.329 301.519 351.284C301.052 350.239 300.819 348.876 300.819 347.196C300.819 345.199 301.211 343.528 301.995 342.184C302.797 340.84 303.852 339.832 305.159 339.16C306.465 338.488 307.884 338.152 309.415 338.152C310.833 338.152 312.047 338.367 313.055 338.796C314.081 339.207 314.912 339.785 315.547 340.532C316.2 341.26 316.676 342.109 316.975 343.08C317.292 344.032 317.451 345.059 317.451 346.16C317.451 347.355 317.32 348.419 317.059 349.352C316.797 350.285 316.48 351.163 316.107 351.984H323.583V338.488H325.991V354H313.643L313.531 352.236C313.96 351.583 314.305 350.78 314.567 349.828C314.847 348.857 314.987 347.737 314.987 346.468C314.987 345.143 314.753 344.013 314.287 343.08C313.82 342.147 313.157 341.437 312.299 340.952C311.459 340.467 310.46 340.224 309.303 340.224C307.996 340.224 306.876 340.541 305.943 341.176C305.009 341.792 304.291 342.641 303.787 343.724C303.283 344.788 303.031 346.001 303.031 347.364C303.031 348.615 303.171 349.613 303.451 350.36C303.749 351.088 304.141 351.62 304.627 351.956C305.131 352.273 305.691 352.432 306.307 352.432C306.792 352.432 307.212 352.329 307.567 352.124C307.94 351.9 308.229 351.583 308.435 351.172C308.64 350.761 308.743 350.257 308.743 349.66C308.743 348.727 308.5 348.017 308.015 347.532C307.529 347.028 306.904 346.776 306.139 346.776C305.392 346.776 304.692 346.972 304.039 347.364C303.385 347.756 302.788 348.251 302.247 348.848L301.827 347.056C302.387 346.403 303.077 345.871 303.899 345.46C304.739 345.031 305.616 344.816 306.531 344.816C307.875 344.816 308.957 345.227 309.779 346.048C310.619 346.869 311.039 347.98 311.039 349.38C311.039 350.407 310.843 351.293 310.451 352.04C310.059 352.787 309.499 353.356 308.771 353.748C308.061 354.14 307.203 354.336 306.195 354.336ZM330.917 354V338.488H345.365V340.504H340.493V344.928C340.866 344.704 341.352 344.471 341.949 344.228C342.546 343.985 343.256 343.864 344.077 343.864C345.01 343.864 345.813 344.041 346.485 344.396C347.157 344.751 347.67 345.264 348.025 345.936C348.38 346.608 348.557 347.42 348.557 348.372C348.557 349.044 348.464 349.688 348.277 350.304C348.09 350.92 347.848 351.48 347.549 351.984H350.965V354H338.085V351.984H345.113C345.43 351.517 345.682 351.004 345.869 350.444C346.056 349.865 346.149 349.259 346.149 348.624C346.149 347.635 345.916 346.935 345.449 346.524C344.982 346.113 344.385 345.908 343.657 345.908C343.06 345.908 342.481 346.029 341.921 346.272C341.38 346.515 340.904 346.795 340.493 347.112V349.968H338.085V340.504H333.325V354H330.917ZM348.977 354V351.984H352.813V338.488H355.221V354H348.977ZM343.069 335.016C342.528 335.016 342.08 334.848 341.725 334.512C341.37 334.157 341.193 333.7 341.193 333.14C341.193 332.599 341.37 332.151 341.725 331.796C342.08 331.441 342.528 331.264 343.069 331.264C343.61 331.264 344.058 331.441 344.413 331.796C344.768 332.151 344.945 332.599 344.945 333.14C344.945 333.7 344.768 334.157 344.413 334.512C344.058 334.848 343.61 335.016 343.069 335.016ZM364.992 354.336C363.872 354.336 362.864 354.159 361.968 353.804C361.072 353.449 360.362 352.927 359.84 352.236C359.317 351.545 359.056 350.715 359.056 349.744C359.056 348.736 359.317 347.868 359.84 347.14C360.381 346.393 361.23 345.824 362.388 345.432C363.545 345.021 365.076 344.816 366.98 344.816H372.02C372.99 344.816 373.83 344.863 374.54 344.956C375.249 345.049 375.865 345.199 376.388 345.404C376.929 345.591 377.414 345.852 377.844 346.188C378.329 346.561 378.712 347.056 378.992 347.672C379.272 348.269 379.412 348.96 379.412 349.744C379.412 351.163 378.982 352.264 378.124 353.048C377.284 353.832 376.089 354.224 374.54 354.224C374.11 354.224 373.644 354.196 373.14 354.14C372.636 354.084 372.169 353.991 371.74 353.86L372.272 351.984C372.552 352.059 372.869 352.124 373.224 352.18C373.597 352.236 373.961 352.264 374.316 352.264C375.193 352.264 375.856 352.049 376.304 351.62C376.77 351.191 377.004 350.528 377.004 349.632C377.004 348.997 376.864 348.493 376.584 348.12C376.304 347.728 375.93 347.439 375.464 347.252C375.016 347.065 374.502 346.944 373.924 346.888C373.364 346.813 372.794 346.776 372.216 346.776H366.784C365.832 346.776 365.02 346.832 364.348 346.944C363.694 347.056 363.134 347.243 362.668 347.504C362.257 347.747 361.949 348.045 361.744 348.4C361.557 348.736 361.464 349.175 361.464 349.716C361.464 350.575 361.818 351.228 362.528 351.676C363.237 352.105 364.133 352.32 365.216 352.32C366.037 352.32 366.737 352.199 367.316 351.956C367.913 351.695 368.37 351.256 368.688 350.64C369.024 350.024 369.192 349.156 369.192 348.036V340.504H364.376V345.544L362.164 345.992V338.488H376.808V340.504H371.572V347.672C371.572 348.923 371.46 349.903 371.236 350.612C371.03 351.321 370.732 351.919 370.34 352.404C369.761 353.113 369.014 353.617 368.1 353.916C367.204 354.196 366.168 354.336 364.992 354.336ZM415.845 345.068C416.89 345.068 417.796 345.329 418.561 345.852C419.326 346.375 419.914 347.112 420.325 348.064C420.754 348.997 420.969 350.099 420.969 351.368C420.969 352.749 420.764 354 420.353 355.12C419.961 356.24 419.392 357.229 418.645 358.088C417.898 358.947 416.984 359.684 415.901 360.3C414.837 360.916 413.624 361.42 412.261 361.812C410.898 362.223 409.414 362.521 407.809 362.708C406.222 362.895 404.524 362.988 402.713 362.988H401.425C398.438 362.988 395.872 362.736 393.725 362.232C391.578 361.728 389.786 361.037 388.349 360.16C386.93 359.283 385.801 358.275 384.961 357.136C384.14 356.016 383.552 354.821 383.197 353.552C382.861 352.264 382.693 350.985 382.693 349.716V349.016C382.693 347.803 382.852 346.571 383.169 345.32C383.505 344.069 383.944 342.865 384.485 341.708C385.045 340.532 385.642 339.459 386.277 338.488L388.349 339.72C387.64 340.784 387.042 341.848 386.557 342.912C386.072 343.976 385.708 345.031 385.465 346.076C385.222 347.103 385.101 348.111 385.101 349.1V349.492C385.101 350.799 385.278 352.031 385.633 353.188C385.988 354.327 386.557 355.363 387.341 356.296C388.125 357.229 389.161 358.032 390.449 358.704C391.737 359.395 393.305 359.917 395.153 360.272C397.02 360.645 399.213 360.832 401.733 360.832H402.377C404.094 360.832 405.681 360.748 407.137 360.58C408.593 360.431 409.918 360.197 411.113 359.88C412.308 359.563 413.362 359.143 414.277 358.62C415.192 358.116 415.966 357.519 416.601 356.828C417.236 356.137 417.712 355.335 418.029 354.42C418.346 353.524 418.505 352.516 418.505 351.396C418.505 350.033 418.244 348.979 417.721 348.232C417.198 347.467 416.461 347.084 415.509 347.084C414.93 347.084 414.389 347.205 413.885 347.448C413.381 347.672 412.942 347.924 412.569 348.204L412.597 346.132C412.952 345.871 413.4 345.628 413.941 345.404C414.482 345.18 415.117 345.068 415.845 345.068ZM394.985 354.336C393.996 354.336 393.09 354.093 392.269 353.608C391.448 353.104 390.794 352.329 390.309 351.284C389.842 350.239 389.609 348.876 389.609 347.196C389.609 345.665 389.833 344.34 390.281 343.22C390.748 342.081 391.382 341.139 392.185 340.392C392.988 339.645 393.893 339.085 394.901 338.712C395.909 338.339 396.954 338.152 398.037 338.152C398.858 338.152 399.596 338.236 400.249 338.404C400.902 338.553 401.5 338.777 402.041 339.076C402.582 339.356 403.086 339.692 403.553 340.084L403.189 342.772C402.536 341.951 401.789 341.325 400.949 340.896C400.128 340.448 399.129 340.224 397.953 340.224C396.702 340.224 395.62 340.541 394.705 341.176C393.79 341.792 393.081 342.641 392.577 343.724C392.073 344.788 391.821 346.001 391.821 347.364C391.821 348.615 391.961 349.613 392.241 350.36C392.54 351.088 392.932 351.62 393.417 351.956C393.921 352.273 394.481 352.432 395.097 352.432C395.601 352.432 396.03 352.329 396.385 352.124C396.758 351.9 397.038 351.583 397.225 351.172C397.43 350.761 397.533 350.257 397.533 349.66C397.533 348.727 397.29 348.017 396.805 347.532C396.32 347.028 395.694 346.776 394.929 346.776C394.182 346.776 393.482 346.972 392.829 347.364C392.176 347.756 391.578 348.251 391.037 348.848L390.617 347.056C391.177 346.403 391.868 345.871 392.689 345.46C393.529 345.031 394.406 344.816 395.321 344.816C396.665 344.816 397.748 345.227 398.569 346.048C399.409 346.869 399.829 347.98 399.829 349.38C399.829 350.407 399.633 351.293 399.241 352.04C398.849 352.787 398.289 353.356 397.561 353.748C396.852 354.14 395.993 354.336 394.985 354.336ZM403.049 354V342.352L403.385 340.168V338.488H417.497V340.504H412.737V354H410.329V340.504H405.457V354H403.049ZM429.632 354.336C428.512 354.336 427.504 354.159 426.608 353.804C425.712 353.449 425.003 352.927 424.48 352.236C423.958 351.545 423.696 350.715 423.696 349.744C423.696 348.736 423.958 347.868 424.48 347.14C425.022 346.393 425.871 345.824 427.028 345.432C428.186 345.021 429.716 344.816 431.62 344.816H436.66C437.631 344.816 438.471 344.863 439.18 344.956C439.89 345.049 440.506 345.199 441.028 345.404C441.57 345.591 442.055 345.852 442.484 346.188C442.97 346.561 443.352 347.056 443.632 347.672C443.912 348.269 444.052 348.96 444.052 349.744C444.052 351.163 443.623 352.264 442.764 353.048C441.924 353.832 440.73 354.224 439.18 354.224C438.751 354.224 438.284 354.196 437.78 354.14C437.276 354.084 436.81 353.991 436.38 353.86L436.912 351.984C437.192 352.059 437.51 352.124 437.864 352.18C438.238 352.236 438.602 352.264 438.956 352.264C439.834 352.264 440.496 352.049 440.944 351.62C441.411 351.191 441.644 350.528 441.644 349.632C441.644 348.997 441.504 348.493 441.224 348.12C440.944 347.728 440.571 347.439 440.104 347.252C439.656 347.065 439.143 346.944 438.564 346.888C438.004 346.813 437.435 346.776 436.856 346.776H431.424C430.472 346.776 429.66 346.832 428.988 346.944C428.335 347.056 427.775 347.243 427.308 347.504C426.898 347.747 426.59 348.045 426.384 348.4C426.198 348.736 426.104 349.175 426.104 349.716C426.104 350.575 426.459 351.228 427.168 351.676C427.878 352.105 428.774 352.32 429.856 352.32C430.678 352.32 431.378 352.199 431.956 351.956C432.554 351.695 433.011 351.256 433.328 350.64C433.664 350.024 433.832 349.156 433.832 348.036V340.504H429.016V345.544L426.804 345.992V338.488H441.448V340.504H436.212V347.672C436.212 348.923 436.1 349.903 435.876 350.612C435.671 351.321 435.372 351.919 434.98 352.404C434.402 353.113 433.655 353.617 432.74 353.916C431.844 354.196 430.808 354.336 429.632 354.336ZM434.42 335.016C433.879 335.016 433.431 334.848 433.076 334.512C432.722 334.157 432.544 333.7 432.544 333.14C432.544 332.599 432.722 332.151 433.076 331.796C433.431 331.441 433.879 331.264 434.42 331.264C434.962 331.264 435.41 331.441 435.764 331.796C436.119 332.151 436.296 332.599 436.296 333.14C436.296 333.7 436.119 334.157 435.764 334.512C435.41 334.848 434.962 335.016 434.42 335.016ZM459.402 354.336C458.263 354.336 457.246 354.159 456.35 353.804C455.454 353.449 454.744 352.927 454.222 352.236C453.699 351.545 453.438 350.715 453.438 349.744C453.438 348.736 453.699 347.868 454.222 347.14C454.763 346.393 455.612 345.824 456.77 345.432C457.946 345.021 459.476 344.816 461.362 344.816H464.862C466.486 344.816 467.867 345.04 469.006 345.488C470.144 345.936 471.068 346.543 471.778 347.308C472.487 348.073 473 348.941 473.318 349.912C473.654 350.864 473.822 351.853 473.822 352.88C473.822 354.373 473.588 355.68 473.122 356.8C472.674 357.92 472.048 358.872 471.246 359.656C470.443 360.459 469.51 361.103 468.446 361.588C467.382 362.073 466.234 362.428 465.002 362.652C463.788 362.876 462.547 362.988 461.278 362.988H460.466C458.487 362.988 456.76 362.736 455.286 362.232C453.811 361.747 452.56 361.075 451.534 360.216C450.526 359.376 449.714 358.415 449.098 357.332C448.482 356.249 448.034 355.111 447.754 353.916C447.474 352.721 447.334 351.536 447.334 350.36V349.772C447.334 348.241 447.52 346.804 447.894 345.46C448.267 344.116 448.752 342.865 449.35 341.708C449.947 340.532 450.572 339.459 451.226 338.488L453.27 339.72C452.523 340.765 451.888 341.848 451.366 342.968C450.843 344.069 450.442 345.199 450.162 346.356C449.882 347.495 449.742 348.643 449.742 349.8V350.332C449.742 351.732 449.947 353.057 450.358 354.308C450.787 355.577 451.44 356.697 452.318 357.668C453.195 358.657 454.334 359.432 455.734 359.992C457.134 360.552 458.814 360.832 460.774 360.832H461.11C462.696 360.832 464.115 360.664 465.366 360.328C466.635 359.992 467.708 359.488 468.586 358.816C469.482 358.163 470.163 357.332 470.63 356.324C471.115 355.335 471.358 354.177 471.358 352.852C471.358 351.452 471.068 350.304 470.49 349.408C469.911 348.512 469.108 347.849 468.082 347.42C467.074 346.991 465.926 346.776 464.638 346.776H461.166C460.214 346.776 459.402 346.832 458.73 346.944C458.076 347.056 457.516 347.243 457.05 347.504C456.639 347.747 456.331 348.045 456.126 348.4C455.939 348.736 455.846 349.175 455.846 349.716C455.846 350.575 456.2 351.228 456.91 351.676C457.619 352.105 458.515 352.32 459.598 352.32C460.419 352.32 461.119 352.199 461.698 351.956C462.295 351.695 462.752 351.256 463.07 350.64C463.406 350.005 463.574 349.137 463.574 348.036V340.504H458.758V345.544L456.546 345.992V338.488H471.19V340.504H465.954V347.672C465.954 348.923 465.842 349.903 465.618 350.612C465.412 351.321 465.114 351.919 464.722 352.404C464.143 353.113 463.396 353.617 462.482 353.916C461.586 354.196 460.559 354.336 459.402 354.336ZM146.772 411.988C145.558 411.988 144.513 411.773 143.636 411.344C142.777 410.933 142.114 410.336 141.648 409.552C141.2 408.768 140.976 407.835 140.976 406.752C140.976 405.427 141.312 404.26 141.984 403.252C142.674 402.244 143.589 401.404 144.728 400.732C145.829 400.079 147.098 399.593 148.536 399.276C149.973 398.94 151.466 398.772 153.016 398.772C154.509 398.772 155.862 398.903 157.076 399.164C158.308 399.407 159.39 399.752 160.324 400.2C161.388 400.704 162.274 401.311 162.984 402.02C163.693 402.711 164.216 403.457 164.552 404.26C164.906 405.081 165.084 405.912 165.084 406.752C165.084 408.376 164.57 409.655 163.544 410.588C162.536 411.521 161.07 411.988 159.148 411.988C157.841 411.988 156.562 411.801 155.312 411.428C154.08 411.073 152.885 410.532 151.728 409.804C150.757 409.337 149.814 408.703 148.9 407.9C147.985 407.097 147.136 406.192 146.352 405.184C145.586 404.195 144.933 403.187 144.392 402.16C143.533 400.611 142.87 399.052 142.404 397.484C141.956 395.897 141.732 394.199 141.732 392.388C141.732 390.764 142.002 389.177 142.544 387.628C143.104 386.079 143.944 384.688 145.064 383.456C146.202 382.224 147.63 381.244 149.348 380.516C151.084 379.769 153.128 379.396 155.48 379.396C157.776 379.396 159.745 379.713 161.388 380.348C163.049 380.983 164.421 381.935 165.504 383.204C166.213 384.044 166.801 384.977 167.268 386.004C167.734 387.031 168.08 388.197 168.304 389.504C168.546 390.792 168.668 392.285 168.668 393.984V403H166.26V395.384C166.26 393.592 166.157 391.996 165.952 390.596C165.746 389.196 165.42 387.973 164.972 386.928C164.524 385.864 163.936 384.959 163.208 384.212C162.33 383.297 161.266 382.616 160.016 382.168C158.765 381.72 157.253 381.496 155.48 381.496C153.912 381.496 152.437 381.739 151.056 382.224C149.693 382.691 148.489 383.391 147.444 384.324C146.417 385.257 145.605 386.405 145.008 387.768C144.429 389.131 144.14 390.708 144.14 392.5C144.14 393.657 144.224 394.721 144.392 395.692C144.56 396.644 144.812 397.559 145.148 398.436C145.484 399.313 145.885 400.209 146.352 401.124C146.781 402.039 147.36 402.972 148.088 403.924C148.816 404.876 149.665 405.772 150.636 406.612C151.606 407.452 152.652 408.171 153.772 408.768C154.574 409.216 155.386 409.524 156.208 409.692C157.048 409.879 157.944 409.972 158.896 409.972C160.277 409.972 161.248 409.655 161.808 409.02C162.386 408.404 162.676 407.601 162.676 406.612C162.676 405.66 162.386 404.792 161.808 404.008C161.229 403.224 160.482 402.599 159.568 402.132C158.672 401.665 157.654 401.329 156.516 401.124C155.396 400.9 154.248 400.788 153.072 400.788C151.429 400.788 149.992 400.956 148.76 401.292C147.546 401.609 146.548 402.029 145.764 402.552C144.942 403.093 144.336 403.709 143.944 404.4C143.552 405.109 143.356 405.837 143.356 406.584C143.356 407.611 143.645 408.432 144.224 409.048C144.821 409.664 145.782 409.972 147.108 409.972C147.929 409.972 148.713 409.907 149.46 409.776C150.206 409.664 150.944 409.403 151.672 408.992C152.829 408.469 153.893 407.76 154.864 406.864C155.834 405.968 156.665 404.979 157.356 403.896C158.065 402.813 158.569 401.74 158.868 400.676C159.129 399.911 159.316 399.145 159.428 398.38C159.558 397.596 159.624 396.803 159.624 396C159.624 394.656 159.437 393.527 159.064 392.612C158.709 391.679 158.242 390.941 157.664 390.4C157.085 389.859 156.478 389.485 155.844 389.28L154.444 389.14C154.313 389.121 154.154 389.112 153.968 389.112C153.8 389.093 153.632 389.084 153.464 389.084C152.792 389.084 152.185 389.187 151.644 389.392C151.121 389.579 150.701 389.877 150.384 390.288C150.066 390.699 149.908 391.212 149.908 391.828C149.908 392.519 150.113 393.097 150.524 393.564C150.953 394.031 151.55 394.264 152.316 394.264C153.006 394.264 153.566 394.049 153.996 393.62C154.425 393.172 154.64 392.547 154.64 391.744C154.64 391.147 154.528 390.596 154.304 390.092C154.08 389.588 153.725 389.084 153.24 388.58L155.48 388.72C155.741 388.981 155.965 389.289 156.152 389.644C156.357 389.98 156.516 390.353 156.628 390.764C156.758 391.156 156.824 391.576 156.824 392.024C156.824 392.827 156.646 393.545 156.292 394.18C155.937 394.796 155.424 395.281 154.752 395.636C154.08 395.991 153.249 396.168 152.26 396.168C151.42 396.168 150.654 395.991 149.964 395.636C149.273 395.281 148.722 394.777 148.312 394.124C147.901 393.471 147.696 392.715 147.696 391.856C147.696 390.792 147.966 389.915 148.508 389.224C149.068 388.515 149.824 387.992 150.776 387.656C151.728 387.32 152.792 387.152 153.968 387.152C155.76 387.152 157.253 387.516 158.448 388.244C159.642 388.972 160.538 389.989 161.136 391.296C161.752 392.603 162.06 394.133 162.06 395.888C162.06 396.709 161.976 397.671 161.808 398.772C161.64 399.873 161.322 400.956 160.856 402.02C160.445 403.159 159.904 404.223 159.232 405.212C158.578 406.201 157.822 407.097 156.964 407.9C156.105 408.703 155.172 409.393 154.164 409.972C152.969 410.607 151.756 411.101 150.524 411.456C149.292 411.811 148.041 411.988 146.772 411.988ZM178.439 403.336C177.319 403.336 176.311 403.159 175.415 402.804C174.519 402.449 173.81 401.927 173.287 401.236C172.764 400.545 172.503 399.705 172.503 398.716C172.503 397.727 172.764 396.868 173.287 396.14C173.828 395.393 174.678 394.824 175.835 394.432C176.992 394.021 178.523 393.816 180.427 393.816H184.739C185.99 393.816 187.11 393.984 188.099 394.32C189.107 394.637 189.966 395.123 190.675 395.776C191.384 396.411 191.926 397.204 192.299 398.156C192.672 399.089 192.859 400.163 192.859 401.376C192.859 402.16 192.775 402.897 192.607 403.588C192.439 404.297 192.206 404.941 191.907 405.52L191.207 407.228C190.498 408.255 189.602 409.123 188.519 409.832C187.436 410.541 186.176 411.073 184.739 411.428C183.302 411.801 181.687 411.988 179.895 411.988H179.531C178.224 411.988 177.011 411.839 175.891 411.54C174.771 411.26 173.875 410.803 173.203 410.168C172.531 409.533 172.195 408.703 172.195 407.676C172.195 407.265 172.27 406.911 172.419 406.612C172.568 406.313 172.783 406.071 173.063 405.884C173.324 405.697 173.632 405.557 173.987 405.464C174.342 405.389 174.92 405.352 175.723 405.352H197.311V407.368H190.339H188.491H175.499C175.275 407.368 175.051 407.396 174.827 407.452C174.622 407.527 174.519 407.723 174.519 408.04C174.519 408.581 174.92 409.029 175.723 409.384C176.544 409.757 177.786 409.944 179.447 409.944H179.811C181.174 409.944 182.387 409.841 183.451 409.636C184.515 409.431 185.458 409.123 186.279 408.712C187.1 408.32 187.81 407.835 188.407 407.256L189.387 405.52C189.611 405.128 189.788 404.717 189.919 404.288C190.068 403.859 190.18 403.411 190.255 402.944C190.33 402.477 190.367 401.983 190.367 401.46C190.367 400.153 190.124 399.08 189.639 398.24C189.154 397.4 188.454 396.784 187.539 396.392C186.643 395.981 185.579 395.776 184.347 395.776H180.231C179.279 395.776 178.467 395.832 177.795 395.944C177.142 396.056 176.582 396.243 176.115 396.504C175.704 396.747 175.396 397.045 175.191 397.4C175.004 397.736 174.911 398.175 174.911 398.716C174.911 399.575 175.266 400.228 175.975 400.676C176.684 401.105 177.58 401.32 178.663 401.32C179.484 401.32 180.184 401.199 180.763 400.956C181.36 400.695 181.818 400.256 182.135 399.64C182.471 399.005 182.639 398.137 182.639 397.036V389.504H177.823V394.544L175.611 394.992V387.488H190.255V389.504H185.019V396.672C185.019 397.923 184.907 398.903 184.683 399.612C184.478 400.321 184.179 400.919 183.787 401.404C183.208 402.113 182.462 402.617 181.547 402.916C180.651 403.196 179.615 403.336 178.439 403.336ZM196.807 407.368V387.488H199.215V407.368H196.807ZM208.982 403.336C207.862 403.336 206.854 403.159 205.958 402.804C205.062 402.449 204.352 401.927 203.83 401.236C203.307 400.545 203.046 399.715 203.046 398.744C203.046 397.736 203.307 396.868 203.83 396.14C204.371 395.393 205.22 394.824 206.378 394.432C207.535 394.021 209.066 393.816 210.97 393.816H215.03C216.654 393.816 218.1 394.021 219.37 394.432C220.639 394.824 221.628 395.487 222.338 396.42C223.066 397.353 223.43 398.632 223.43 400.256C223.43 401.507 223.196 402.552 222.73 403.392C222.263 404.251 221.6 404.997 220.742 405.632C220.126 406.061 219.426 406.407 218.642 406.668C217.876 406.929 216.99 407.107 215.982 407.2C214.974 407.312 213.798 407.368 212.454 407.368H209.29C208.506 407.368 207.899 407.424 207.47 407.536C207.04 407.648 206.667 407.807 206.35 408.012C206.051 408.217 205.818 408.507 205.65 408.88C205.482 409.253 205.398 409.748 205.398 410.364C205.398 410.644 205.407 410.905 205.426 411.148C205.444 411.409 205.463 411.652 205.482 411.876L203.186 411.988C203.13 411.652 203.083 411.279 203.046 410.868C203.008 410.476 202.99 410.121 202.99 409.804C202.99 408.983 203.139 408.283 203.438 407.704C203.736 407.144 204.119 406.687 204.586 406.332C204.922 406.089 205.267 405.893 205.622 405.744C205.995 405.613 206.415 405.511 206.882 405.436C207.367 405.38 207.918 405.352 208.534 405.352H211.586C213.247 405.352 214.61 405.277 215.674 405.128C216.738 404.997 217.596 404.783 218.25 404.484C218.903 404.204 219.444 403.831 219.874 403.364C220.247 402.953 220.527 402.477 220.714 401.936C220.919 401.376 221.022 400.751 221.022 400.06C221.022 399.145 220.835 398.408 220.462 397.848C220.107 397.288 219.622 396.859 219.006 396.56C218.408 396.261 217.736 396.056 216.99 395.944C216.262 395.832 215.515 395.776 214.75 395.776H210.774C209.822 395.776 209.01 395.832 208.338 395.944C207.684 396.056 207.124 396.243 206.658 396.504C206.247 396.747 205.939 397.045 205.734 397.4C205.547 397.736 205.454 398.175 205.454 398.716C205.454 399.575 205.808 400.228 206.518 400.676C207.227 401.105 208.123 401.32 209.206 401.32C210.027 401.32 210.727 401.199 211.306 400.956C211.903 400.695 212.36 400.256 212.678 399.64C213.014 399.005 213.182 398.137 213.182 397.036V389.504H208.366V394.544L206.154 394.992V387.488H220.798V389.504H215.562V396.672C215.562 397.923 215.45 398.903 215.226 399.612C215.02 400.321 214.722 400.919 214.33 401.404C213.751 402.113 213.004 402.617 212.09 402.916C211.194 403.196 210.158 403.336 208.982 403.336ZM227.243 403V387.488H242.223V389.504H237.463V403H235.055V389.504H229.651V403H227.243ZM266.205 393.949C266.205 395.38 266.036 396.67 265.699 397.818C265.362 398.967 264.856 399.947 264.182 400.758C263.516 401.56 262.678 402.18 261.666 402.617C260.654 403.046 259.474 403.26 258.125 403.26C256.794 403.26 255.641 403.064 254.666 402.672C253.7 402.271 252.898 401.692 252.26 400.936C251.631 400.179 251.161 399.24 250.852 398.119C250.542 396.998 250.387 395.708 250.387 394.25C250.387 392.855 250.555 391.589 250.893 390.449C251.23 389.31 251.736 388.344 252.41 387.551C253.085 386.749 253.928 386.133 254.939 385.705C255.951 385.268 257.132 385.049 258.48 385.049C259.784 385.049 260.919 385.245 261.885 385.637C262.851 386.029 263.653 386.603 264.291 387.359C264.938 388.107 265.417 389.036 265.727 390.148C266.046 391.251 266.205 392.518 266.205 393.949ZM263.73 394.113C263.73 393.111 263.639 392.181 263.457 391.324C263.284 390.458 262.988 389.711 262.568 389.082C262.158 388.444 261.607 387.947 260.914 387.592C260.221 387.236 259.365 387.059 258.344 387.059C257.323 387.059 256.466 387.25 255.773 387.633C255.081 388.016 254.516 388.526 254.078 389.164C253.65 389.802 253.34 390.549 253.148 391.406C252.966 392.254 252.875 393.147 252.875 394.086C252.875 395.125 252.962 396.082 253.135 396.957C253.308 397.832 253.6 398.589 254.01 399.227C254.42 399.855 254.967 400.348 255.65 400.703C256.343 401.049 257.209 401.223 258.248 401.223C259.278 401.223 260.144 401.031 260.846 400.648C261.548 400.266 262.113 399.751 262.541 399.104C262.969 398.447 263.275 397.691 263.457 396.834C263.639 395.977 263.73 395.07 263.73 394.113ZM280.26 402.658C280.26 402.731 280.242 402.795 280.205 402.85C280.169 402.895 280.109 402.936 280.027 402.973C279.945 403.009 279.831 403.036 279.686 403.055C279.54 403.073 279.357 403.082 279.139 403.082C278.911 403.082 278.724 403.073 278.578 403.055C278.432 403.036 278.318 403.009 278.236 402.973C278.154 402.936 278.095 402.895 278.059 402.85C278.022 402.795 278.004 402.731 278.004 402.658V395.453C278.004 394.751 277.949 394.186 277.84 393.758C277.73 393.329 277.571 392.96 277.361 392.65C277.152 392.34 276.878 392.104 276.541 391.939C276.213 391.775 275.83 391.693 275.393 391.693C274.827 391.693 274.262 391.894 273.697 392.295C273.132 392.696 272.54 393.284 271.92 394.059V402.658C271.92 402.731 271.902 402.795 271.865 402.85C271.829 402.895 271.77 402.936 271.688 402.973C271.605 403.009 271.492 403.036 271.346 403.055C271.2 403.073 271.013 403.082 270.785 403.082C270.566 403.082 270.384 403.073 270.238 403.055C270.092 403.036 269.974 403.009 269.883 402.973C269.801 402.936 269.742 402.895 269.705 402.85C269.678 402.795 269.664 402.731 269.664 402.658V390.354C269.664 390.281 269.678 390.221 269.705 390.176C269.732 390.121 269.787 390.076 269.869 390.039C269.951 389.993 270.056 389.966 270.184 389.957C270.311 389.939 270.48 389.93 270.689 389.93C270.89 389.93 271.054 389.939 271.182 389.957C271.318 389.966 271.423 389.993 271.496 390.039C271.569 390.076 271.619 390.121 271.646 390.176C271.683 390.221 271.701 390.281 271.701 390.354V391.98C272.394 391.206 273.082 390.641 273.766 390.285C274.458 389.921 275.156 389.738 275.857 389.738C276.678 389.738 277.366 389.88 277.922 390.162C278.487 390.436 278.943 390.805 279.289 391.27C279.635 391.734 279.882 392.281 280.027 392.91C280.182 393.53 280.26 394.277 280.26 395.152V402.658ZM294.875 395.973C294.875 396.328 294.784 396.583 294.602 396.738C294.428 396.884 294.228 396.957 294 396.957H285.934C285.934 397.641 286.002 398.256 286.139 398.803C286.275 399.35 286.503 399.819 286.822 400.211C287.141 400.603 287.556 400.904 288.066 401.113C288.577 401.323 289.201 401.428 289.939 401.428C290.523 401.428 291.042 401.382 291.498 401.291C291.954 401.191 292.346 401.081 292.674 400.963C293.011 400.844 293.285 400.74 293.494 400.648C293.713 400.548 293.877 400.498 293.986 400.498C294.05 400.498 294.105 400.516 294.15 400.553C294.205 400.58 294.246 400.626 294.273 400.689C294.301 400.753 294.319 400.844 294.328 400.963C294.346 401.072 294.355 401.209 294.355 401.373C294.355 401.492 294.351 401.596 294.342 401.688C294.333 401.77 294.319 401.847 294.301 401.92C294.292 401.984 294.269 402.043 294.232 402.098C294.205 402.152 294.164 402.207 294.109 402.262C294.064 402.307 293.918 402.389 293.672 402.508C293.426 402.617 293.107 402.727 292.715 402.836C292.323 402.945 291.867 403.041 291.348 403.123C290.837 403.214 290.29 403.26 289.707 403.26C288.695 403.26 287.807 403.118 287.041 402.836C286.285 402.553 285.646 402.134 285.127 401.578C284.607 401.022 284.215 400.325 283.951 399.486C283.687 398.648 283.555 397.673 283.555 396.561C283.555 395.503 283.691 394.555 283.965 393.717C284.238 392.869 284.63 392.154 285.141 391.57C285.66 390.978 286.285 390.527 287.014 390.217C287.743 389.898 288.559 389.738 289.461 389.738C290.427 389.738 291.247 389.893 291.922 390.203C292.605 390.513 293.166 390.932 293.604 391.461C294.041 391.98 294.36 392.596 294.561 393.307C294.77 394.008 294.875 394.76 294.875 395.562V395.973ZM292.605 395.303C292.633 394.118 292.368 393.188 291.812 392.514C291.266 391.839 290.45 391.502 289.365 391.502C288.809 391.502 288.322 391.607 287.902 391.816C287.483 392.026 287.132 392.304 286.85 392.65C286.567 392.997 286.348 393.402 286.193 393.867C286.038 394.323 285.952 394.801 285.934 395.303H292.605ZM303.857 396.096C303.857 396.451 303.816 396.697 303.734 396.834C303.652 396.971 303.534 397.039 303.379 397.039H297.664C297.5 397.039 297.377 396.971 297.295 396.834C297.213 396.688 297.172 396.442 297.172 396.096C297.172 395.749 297.213 395.508 297.295 395.371C297.377 395.234 297.5 395.166 297.664 395.166H303.379C303.452 395.166 303.516 395.18 303.57 395.207C303.634 395.234 303.684 395.289 303.721 395.371C303.766 395.444 303.798 395.54 303.816 395.658C303.844 395.777 303.857 395.923 303.857 396.096ZM316.668 398.037C316.668 398.867 316.513 399.605 316.203 400.252C315.902 400.899 315.479 401.451 314.932 401.906C314.394 402.353 313.756 402.69 313.018 402.918C312.288 403.146 311.5 403.26 310.652 403.26C310.06 403.26 309.508 403.21 308.998 403.109C308.497 403.009 308.046 402.886 307.645 402.74C307.253 402.594 306.92 402.444 306.646 402.289C306.382 402.134 306.195 402.002 306.086 401.893C305.986 401.783 305.908 401.646 305.854 401.482C305.808 401.309 305.785 401.081 305.785 400.799C305.785 400.598 305.794 400.434 305.812 400.307C305.831 400.17 305.858 400.061 305.895 399.979C305.931 399.896 305.977 399.842 306.031 399.814C306.086 399.778 306.15 399.76 306.223 399.76C306.35 399.76 306.528 399.837 306.756 399.992C306.993 400.147 307.294 400.316 307.658 400.498C308.023 400.68 308.46 400.854 308.971 401.018C309.49 401.173 310.087 401.25 310.762 401.25C311.272 401.25 311.737 401.182 312.156 401.045C312.585 400.908 312.949 400.717 313.25 400.471C313.56 400.215 313.797 399.906 313.961 399.541C314.125 399.176 314.207 398.762 314.207 398.297C314.207 397.796 314.093 397.367 313.865 397.012C313.637 396.656 313.337 396.346 312.963 396.082C312.589 395.809 312.161 395.562 311.678 395.344C311.204 395.116 310.716 394.888 310.215 394.66C309.714 394.423 309.226 394.163 308.752 393.881C308.278 393.598 307.854 393.266 307.48 392.883C307.107 392.5 306.801 392.053 306.564 391.543C306.337 391.023 306.223 390.404 306.223 389.684C306.223 388.945 306.355 388.289 306.619 387.715C306.893 387.132 307.266 386.644 307.74 386.252C308.223 385.86 308.793 385.564 309.449 385.363C310.115 385.154 310.83 385.049 311.596 385.049C311.988 385.049 312.38 385.085 312.771 385.158C313.173 385.222 313.546 385.313 313.893 385.432C314.248 385.541 314.562 385.669 314.836 385.814C315.109 385.951 315.287 386.065 315.369 386.156C315.46 386.238 315.52 386.307 315.547 386.361C315.574 386.407 315.597 386.471 315.615 386.553C315.633 386.626 315.647 386.717 315.656 386.826C315.665 386.936 315.67 387.077 315.67 387.25C315.67 387.414 315.661 387.56 315.643 387.688C315.633 387.815 315.615 387.924 315.588 388.016C315.561 388.098 315.52 388.161 315.465 388.207C315.419 388.243 315.365 388.262 315.301 388.262C315.201 388.262 315.041 388.198 314.822 388.07C314.613 387.943 314.353 387.801 314.043 387.646C313.733 387.482 313.364 387.337 312.936 387.209C312.516 387.072 312.042 387.004 311.514 387.004C311.021 387.004 310.593 387.072 310.229 387.209C309.864 387.337 309.563 387.51 309.326 387.729C309.089 387.947 308.911 388.207 308.793 388.508C308.674 388.809 308.615 389.128 308.615 389.465C308.615 389.957 308.729 390.381 308.957 390.736C309.185 391.092 309.486 391.406 309.859 391.68C310.242 391.953 310.675 392.204 311.158 392.432C311.641 392.66 312.133 392.892 312.635 393.129C313.136 393.357 313.628 393.612 314.111 393.895C314.594 394.168 315.023 394.496 315.396 394.879C315.779 395.253 316.085 395.699 316.312 396.219C316.549 396.729 316.668 397.335 316.668 398.037ZM326.184 401.756C326.184 402.02 326.165 402.23 326.129 402.385C326.092 402.54 326.038 402.654 325.965 402.727C325.892 402.799 325.783 402.868 325.637 402.932C325.491 402.995 325.322 403.046 325.131 403.082C324.949 403.128 324.753 403.164 324.543 403.191C324.333 403.219 324.124 403.232 323.914 403.232C323.276 403.232 322.729 403.15 322.273 402.986C321.818 402.813 321.444 402.558 321.152 402.221C320.861 401.874 320.646 401.441 320.51 400.922C320.382 400.393 320.318 399.773 320.318 399.062V391.871H318.596C318.459 391.871 318.35 391.798 318.268 391.652C318.186 391.507 318.145 391.27 318.145 390.941C318.145 390.768 318.154 390.622 318.172 390.504C318.199 390.385 318.231 390.29 318.268 390.217C318.304 390.135 318.35 390.08 318.404 390.053C318.468 390.016 318.536 389.998 318.609 389.998H320.318V387.072C320.318 387.008 320.332 386.949 320.359 386.895C320.396 386.84 320.455 386.794 320.537 386.758C320.628 386.712 320.747 386.68 320.893 386.662C321.038 386.644 321.221 386.635 321.439 386.635C321.667 386.635 321.854 386.644 322 386.662C322.146 386.68 322.26 386.712 322.342 386.758C322.424 386.794 322.483 386.84 322.52 386.895C322.556 386.949 322.574 387.008 322.574 387.072V389.998H325.732C325.805 389.998 325.869 390.016 325.924 390.053C325.979 390.08 326.024 390.135 326.061 390.217C326.106 390.29 326.138 390.385 326.156 390.504C326.174 390.622 326.184 390.768 326.184 390.941C326.184 391.27 326.143 391.507 326.061 391.652C325.979 391.798 325.869 391.871 325.732 391.871H322.574V398.734C322.574 399.582 322.697 400.225 322.943 400.662C323.199 401.09 323.65 401.305 324.297 401.305C324.507 401.305 324.693 401.286 324.857 401.25C325.021 401.204 325.167 401.159 325.295 401.113C325.423 401.068 325.532 401.027 325.623 400.99C325.714 400.945 325.796 400.922 325.869 400.922C325.915 400.922 325.956 400.936 325.992 400.963C326.038 400.981 326.07 401.022 326.088 401.086C326.115 401.15 326.138 401.236 326.156 401.346C326.174 401.455 326.184 401.592 326.184 401.756ZM340.334 396.369C340.334 397.372 340.202 398.297 339.938 399.145C339.673 399.983 339.277 400.708 338.748 401.318C338.229 401.929 337.572 402.408 336.779 402.754C335.995 403.091 335.084 403.26 334.045 403.26C333.033 403.26 332.149 403.109 331.393 402.809C330.645 402.508 330.021 402.07 329.52 401.496C329.018 400.922 328.645 400.225 328.398 399.404C328.152 398.584 328.029 397.654 328.029 396.615C328.029 395.613 328.157 394.692 328.412 393.854C328.676 393.006 329.068 392.277 329.588 391.666C330.117 391.055 330.773 390.581 331.557 390.244C332.34 389.907 333.257 389.738 334.305 389.738C335.316 389.738 336.196 389.889 336.943 390.189C337.7 390.49 338.329 390.928 338.83 391.502C339.331 392.076 339.705 392.773 339.951 393.594C340.206 394.414 340.334 395.339 340.334 396.369ZM337.955 396.52C337.955 395.854 337.891 395.225 337.764 394.633C337.645 394.04 337.445 393.521 337.162 393.074C336.88 392.628 336.497 392.277 336.014 392.021C335.531 391.757 334.929 391.625 334.209 391.625C333.544 391.625 332.969 391.743 332.486 391.98C332.012 392.217 331.62 392.555 331.311 392.992C331.001 393.421 330.768 393.931 330.613 394.523C330.467 395.116 330.395 395.763 330.395 396.465C330.395 397.139 330.454 397.773 330.572 398.365C330.7 398.958 330.905 399.477 331.188 399.924C331.479 400.361 331.867 400.712 332.35 400.977C332.833 401.232 333.434 401.359 334.154 401.359C334.811 401.359 335.38 401.241 335.863 401.004C336.346 400.767 336.743 400.434 337.053 400.006C337.363 399.577 337.59 399.067 337.736 398.475C337.882 397.882 337.955 397.23 337.955 396.52ZM354.977 396.314C354.977 397.39 354.858 398.356 354.621 399.213C354.393 400.07 354.051 400.799 353.596 401.4C353.149 401.993 352.593 402.453 351.928 402.781C351.262 403.1 350.501 403.26 349.645 403.26C349.28 403.26 348.943 403.223 348.633 403.15C348.323 403.077 348.018 402.964 347.717 402.809C347.425 402.654 347.133 402.458 346.842 402.221C346.55 401.984 346.24 401.706 345.912 401.387V407.539C345.912 407.612 345.894 407.676 345.857 407.73C345.821 407.785 345.762 407.831 345.68 407.867C345.598 407.904 345.484 407.931 345.338 407.949C345.192 407.967 345.005 407.977 344.777 407.977C344.559 407.977 344.376 407.967 344.23 407.949C344.085 407.931 343.966 407.904 343.875 407.867C343.793 407.831 343.734 407.785 343.697 407.73C343.67 407.676 343.656 407.612 343.656 407.539V390.354C343.656 390.271 343.67 390.208 343.697 390.162C343.725 390.107 343.779 390.062 343.861 390.025C343.943 389.989 344.048 389.966 344.176 389.957C344.303 389.939 344.458 389.93 344.641 389.93C344.832 389.93 344.987 389.939 345.105 389.957C345.233 389.966 345.338 389.989 345.42 390.025C345.502 390.062 345.557 390.107 345.584 390.162C345.62 390.208 345.639 390.271 345.639 390.354V392.008C346.012 391.625 346.372 391.292 346.719 391.01C347.065 390.727 347.411 390.495 347.758 390.312C348.113 390.121 348.473 389.98 348.838 389.889C349.212 389.788 349.604 389.738 350.014 389.738C350.907 389.738 351.668 389.911 352.297 390.258C352.926 390.604 353.436 391.078 353.828 391.68C354.229 392.281 354.521 392.983 354.703 393.785C354.885 394.578 354.977 395.421 354.977 396.314ZM352.598 396.574C352.598 395.945 352.548 395.339 352.447 394.756C352.356 394.163 352.192 393.639 351.955 393.184C351.727 392.728 351.417 392.363 351.025 392.09C350.633 391.816 350.146 391.68 349.562 391.68C349.271 391.68 348.984 391.725 348.701 391.816C348.419 391.898 348.132 392.035 347.84 392.227C347.548 392.409 347.243 392.655 346.924 392.965C346.605 393.266 346.268 393.639 345.912 394.086V398.98C346.532 399.737 347.12 400.316 347.676 400.717C348.232 401.118 348.815 401.318 349.426 401.318C349.991 401.318 350.474 401.182 350.875 400.908C351.285 400.635 351.613 400.27 351.859 399.814C352.115 399.359 352.301 398.848 352.42 398.283C352.538 397.718 352.598 397.148 352.598 396.574ZM378.574 393.895C378.574 395.426 378.378 396.766 377.986 397.914C377.594 399.053 377.02 400.001 376.264 400.758C375.516 401.505 374.596 402.066 373.502 402.439C372.408 402.813 371.105 403 369.592 403H365.846C365.636 403 365.436 402.932 365.244 402.795C365.062 402.649 364.971 402.398 364.971 402.043V386.266C364.971 385.91 365.062 385.664 365.244 385.527C365.436 385.382 365.636 385.309 365.846 385.309H369.852C371.383 385.309 372.677 385.509 373.734 385.91C374.792 386.302 375.676 386.872 376.387 387.619C377.107 388.357 377.649 389.255 378.014 390.312C378.387 391.37 378.574 392.564 378.574 393.895ZM376.1 393.99C376.1 393.033 375.981 392.145 375.744 391.324C375.507 390.495 375.133 389.779 374.623 389.178C374.122 388.576 373.484 388.107 372.709 387.77C371.934 387.432 370.936 387.264 369.715 387.264H367.322V401.031H369.742C370.872 401.031 371.825 400.89 372.6 400.607C373.374 400.325 374.021 399.892 374.541 399.309C375.061 398.725 375.448 397.996 375.703 397.121C375.967 396.237 376.1 395.193 376.1 393.99ZM392.438 395.973C392.438 396.328 392.346 396.583 392.164 396.738C391.991 396.884 391.79 396.957 391.562 396.957H383.496C383.496 397.641 383.564 398.256 383.701 398.803C383.838 399.35 384.066 399.819 384.385 400.211C384.704 400.603 385.118 400.904 385.629 401.113C386.139 401.323 386.764 401.428 387.502 401.428C388.085 401.428 388.605 401.382 389.061 401.291C389.516 401.191 389.908 401.081 390.236 400.963C390.574 400.844 390.847 400.74 391.057 400.648C391.275 400.548 391.439 400.498 391.549 400.498C391.613 400.498 391.667 400.516 391.713 400.553C391.768 400.58 391.809 400.626 391.836 400.689C391.863 400.753 391.882 400.844 391.891 400.963C391.909 401.072 391.918 401.209 391.918 401.373C391.918 401.492 391.913 401.596 391.904 401.688C391.895 401.77 391.882 401.847 391.863 401.92C391.854 401.984 391.831 402.043 391.795 402.098C391.768 402.152 391.727 402.207 391.672 402.262C391.626 402.307 391.48 402.389 391.234 402.508C390.988 402.617 390.669 402.727 390.277 402.836C389.885 402.945 389.43 403.041 388.91 403.123C388.4 403.214 387.853 403.26 387.27 403.26C386.258 403.26 385.369 403.118 384.604 402.836C383.847 402.553 383.209 402.134 382.689 401.578C382.17 401.022 381.778 400.325 381.514 399.486C381.249 398.648 381.117 397.673 381.117 396.561C381.117 395.503 381.254 394.555 381.527 393.717C381.801 392.869 382.193 392.154 382.703 391.57C383.223 390.978 383.847 390.527 384.576 390.217C385.305 389.898 386.121 389.738 387.023 389.738C387.99 389.738 388.81 389.893 389.484 390.203C390.168 390.513 390.729 390.932 391.166 391.461C391.604 391.98 391.923 392.596 392.123 393.307C392.333 394.008 392.438 394.76 392.438 395.562V395.973ZM390.168 395.303C390.195 394.118 389.931 393.188 389.375 392.514C388.828 391.839 388.012 391.502 386.928 391.502C386.372 391.502 385.884 391.607 385.465 391.816C385.046 392.026 384.695 392.304 384.412 392.65C384.13 392.997 383.911 393.402 383.756 393.867C383.601 394.323 383.514 394.801 383.496 395.303H390.168ZM403.607 399.309C403.607 399.938 403.489 400.498 403.252 400.99C403.024 401.482 402.696 401.897 402.268 402.234C401.839 402.572 401.329 402.827 400.736 403C400.144 403.173 399.492 403.26 398.781 403.26C398.344 403.26 397.924 403.223 397.523 403.15C397.132 403.087 396.776 403.005 396.457 402.904C396.147 402.795 395.883 402.686 395.664 402.576C395.445 402.458 395.286 402.353 395.186 402.262C395.085 402.171 395.012 402.043 394.967 401.879C394.921 401.715 394.898 401.492 394.898 401.209C394.898 401.036 394.908 400.89 394.926 400.771C394.944 400.653 394.967 400.557 394.994 400.484C395.021 400.411 395.058 400.361 395.104 400.334C395.158 400.298 395.217 400.279 395.281 400.279C395.382 400.279 395.527 400.343 395.719 400.471C395.919 400.589 396.161 400.721 396.443 400.867C396.735 401.013 397.077 401.15 397.469 401.277C397.861 401.396 398.312 401.455 398.822 401.455C399.205 401.455 399.551 401.414 399.861 401.332C400.171 401.25 400.44 401.132 400.668 400.977C400.896 400.812 401.069 400.607 401.188 400.361C401.315 400.115 401.379 399.824 401.379 399.486C401.379 399.14 401.288 398.848 401.105 398.611C400.932 398.374 400.7 398.165 400.408 397.982C400.117 397.8 399.788 397.641 399.424 397.504C399.059 397.358 398.681 397.208 398.289 397.053C397.906 396.898 397.528 396.725 397.154 396.533C396.79 396.333 396.462 396.091 396.17 395.809C395.878 395.526 395.641 395.189 395.459 394.797C395.286 394.405 395.199 393.936 395.199 393.389C395.199 392.906 395.29 392.445 395.473 392.008C395.664 391.561 395.947 391.174 396.32 390.846C396.694 390.508 397.159 390.24 397.715 390.039C398.28 389.839 398.936 389.738 399.684 389.738C400.012 389.738 400.34 389.766 400.668 389.82C400.996 389.875 401.292 389.943 401.557 390.025C401.821 390.107 402.044 390.199 402.227 390.299C402.418 390.39 402.559 390.472 402.65 390.545C402.751 390.618 402.814 390.682 402.842 390.736C402.878 390.791 402.901 390.855 402.91 390.928C402.928 390.992 402.942 391.074 402.951 391.174C402.969 391.274 402.979 391.397 402.979 391.543C402.979 391.698 402.969 391.835 402.951 391.953C402.942 392.062 402.919 392.154 402.883 392.227C402.855 392.299 402.819 392.354 402.773 392.391C402.728 392.418 402.678 392.432 402.623 392.432C402.541 392.432 402.423 392.382 402.268 392.281C402.113 392.181 401.912 392.076 401.666 391.967C401.42 391.848 401.128 391.739 400.791 391.639C400.463 391.538 400.085 391.488 399.656 391.488C399.273 391.488 398.936 391.534 398.645 391.625C398.353 391.707 398.111 391.83 397.92 391.994C397.738 392.149 397.596 392.336 397.496 392.555C397.405 392.773 397.359 393.01 397.359 393.266C397.359 393.621 397.451 393.922 397.633 394.168C397.815 394.405 398.052 394.615 398.344 394.797C398.635 394.979 398.968 395.143 399.342 395.289C399.715 395.435 400.094 395.585 400.477 395.74C400.868 395.895 401.251 396.068 401.625 396.26C402.008 396.451 402.345 396.684 402.637 396.957C402.928 397.23 403.161 397.559 403.334 397.941C403.516 398.324 403.607 398.78 403.607 399.309ZM417.225 389.998C417.498 389.998 417.685 390.062 417.785 390.189C417.885 390.308 417.936 390.486 417.936 390.723V402.658C417.936 402.731 417.917 402.795 417.881 402.85C417.844 402.895 417.781 402.936 417.689 402.973C417.607 403.009 417.493 403.036 417.348 403.055C417.202 403.073 417.024 403.082 416.814 403.082C416.587 403.082 416.4 403.073 416.254 403.055C416.108 403.036 415.99 403.009 415.898 402.973C415.816 402.936 415.757 402.895 415.721 402.85C415.684 402.795 415.666 402.731 415.666 402.658V391.871H409.309V398.734C409.309 399.582 409.432 400.225 409.678 400.662C409.933 401.09 410.384 401.305 411.031 401.305C411.241 401.305 411.428 401.286 411.592 401.25C411.756 401.204 411.902 401.159 412.029 401.113C412.157 401.068 412.266 401.027 412.357 400.99C412.449 400.945 412.531 400.922 412.604 400.922C412.649 400.922 412.69 400.936 412.727 400.963C412.772 400.981 412.804 401.022 412.822 401.086C412.85 401.15 412.872 401.236 412.891 401.346C412.909 401.455 412.918 401.592 412.918 401.756C412.918 402.02 412.9 402.23 412.863 402.385C412.827 402.531 412.772 402.645 412.699 402.727C412.626 402.799 412.517 402.868 412.371 402.932C412.225 402.995 412.057 403.046 411.865 403.082C411.683 403.128 411.487 403.164 411.277 403.191C411.068 403.219 410.858 403.232 410.648 403.232C410.01 403.232 409.464 403.15 409.008 402.986C408.552 402.813 408.178 402.558 407.887 402.221C407.595 401.874 407.381 401.441 407.244 400.922C407.117 400.393 407.053 399.773 407.053 399.062V391.871H405.33C405.193 391.871 405.084 391.798 405.002 391.652C404.92 391.507 404.879 391.27 404.879 390.941C404.879 390.768 404.888 390.622 404.906 390.504C404.934 390.385 404.965 390.29 405.002 390.217C405.038 390.135 405.084 390.08 405.139 390.053C405.202 390.016 405.271 389.998 405.344 389.998H407.053V387.072C407.053 387.008 407.066 386.949 407.094 386.895C407.13 386.84 407.189 386.794 407.271 386.758C407.363 386.712 407.481 386.68 407.627 386.662C407.773 386.644 407.955 386.635 408.174 386.635C408.402 386.635 408.589 386.644 408.734 386.662C408.88 386.68 408.994 386.712 409.076 386.758C409.158 386.794 409.217 386.84 409.254 386.895C409.29 386.949 409.309 387.008 409.309 387.072V389.998H417.225ZM418.195 386.197C418.195 386.726 418.095 387.086 417.895 387.277C417.694 387.469 417.325 387.564 416.787 387.564C416.258 387.564 415.894 387.473 415.693 387.291C415.502 387.1 415.406 386.744 415.406 386.225C415.406 385.696 415.507 385.336 415.707 385.145C415.908 384.953 416.277 384.857 416.814 384.857C417.343 384.857 417.703 384.953 417.895 385.145C418.095 385.327 418.195 385.678 418.195 386.197ZM432.729 402.658C432.729 402.731 432.71 402.795 432.674 402.85C432.637 402.895 432.578 402.936 432.496 402.973C432.414 403.009 432.3 403.036 432.154 403.055C432.008 403.073 431.826 403.082 431.607 403.082C431.38 403.082 431.193 403.073 431.047 403.055C430.901 403.036 430.787 403.009 430.705 402.973C430.623 402.936 430.564 402.895 430.527 402.85C430.491 402.795 430.473 402.731 430.473 402.658V395.453C430.473 394.751 430.418 394.186 430.309 393.758C430.199 393.329 430.04 392.96 429.83 392.65C429.62 392.34 429.347 392.104 429.01 391.939C428.682 391.775 428.299 391.693 427.861 391.693C427.296 391.693 426.731 391.894 426.166 392.295C425.601 392.696 425.008 393.284 424.389 394.059V402.658C424.389 402.731 424.37 402.795 424.334 402.85C424.298 402.895 424.238 402.936 424.156 402.973C424.074 403.009 423.96 403.036 423.814 403.055C423.669 403.073 423.482 403.082 423.254 403.082C423.035 403.082 422.853 403.073 422.707 403.055C422.561 403.036 422.443 403.009 422.352 402.973C422.27 402.936 422.21 402.895 422.174 402.85C422.146 402.795 422.133 402.731 422.133 402.658V390.354C422.133 390.281 422.146 390.221 422.174 390.176C422.201 390.121 422.256 390.076 422.338 390.039C422.42 389.993 422.525 389.966 422.652 389.957C422.78 389.939 422.949 389.93 423.158 389.93C423.359 389.93 423.523 389.939 423.65 389.957C423.787 389.966 423.892 389.993 423.965 390.039C424.038 390.076 424.088 390.121 424.115 390.176C424.152 390.221 424.17 390.281 424.17 390.354V391.98C424.863 391.206 425.551 390.641 426.234 390.285C426.927 389.921 427.624 389.738 428.326 389.738C429.146 389.738 429.835 389.88 430.391 390.162C430.956 390.436 431.411 390.805 431.758 391.27C432.104 391.734 432.35 392.281 432.496 392.91C432.651 393.53 432.729 394.277 432.729 395.152V402.658ZM441.93 403L440.289 407.525C440.234 407.671 440.093 407.781 439.865 407.854C439.646 407.936 439.309 407.977 438.854 407.977C438.617 407.977 438.425 407.963 438.279 407.936C438.133 407.917 438.02 407.881 437.938 407.826C437.865 407.771 437.824 407.699 437.814 407.607C437.805 407.516 437.828 407.407 437.883 407.279L439.578 403C439.496 402.964 439.419 402.904 439.346 402.822C439.273 402.74 439.223 402.654 439.195 402.562L434.807 390.805C434.734 390.613 434.697 390.463 434.697 390.354C434.697 390.244 434.734 390.158 434.807 390.094C434.88 390.03 434.998 389.989 435.162 389.971C435.326 389.943 435.545 389.93 435.818 389.93C436.092 389.93 436.306 389.939 436.461 389.957C436.616 389.966 436.739 389.989 436.83 390.025C436.921 390.062 436.985 390.117 437.021 390.189C437.067 390.253 437.113 390.344 437.158 390.463L440.672 400.334H440.713L444.104 390.408C444.158 390.235 444.222 390.126 444.295 390.08C444.377 390.025 444.495 389.989 444.65 389.971C444.805 389.943 445.029 389.93 445.32 389.93C445.576 389.93 445.785 389.943 445.949 389.971C446.113 389.989 446.232 390.03 446.305 390.094C446.387 390.158 446.428 390.244 446.428 390.354C446.428 390.463 446.4 390.6 446.346 390.764L441.93 403ZM459.348 397.9C459.348 397.973 459.329 398.037 459.293 398.092C459.266 398.146 459.211 398.192 459.129 398.229C459.047 398.265 458.942 398.292 458.814 398.311C458.687 398.329 458.527 398.338 458.336 398.338C458.145 398.338 457.985 398.329 457.857 398.311C457.73 398.292 457.625 398.265 457.543 398.229C457.461 398.192 457.402 398.146 457.365 398.092C457.338 398.037 457.324 397.973 457.324 397.9L457.092 384.857C457.083 384.748 457.096 384.652 457.133 384.57C457.169 384.488 457.233 384.42 457.324 384.365C457.424 384.311 457.552 384.274 457.707 384.256C457.871 384.229 458.081 384.215 458.336 384.215C458.582 384.215 458.783 384.229 458.938 384.256C459.102 384.283 459.229 384.324 459.32 384.379C459.421 384.434 459.489 384.502 459.525 384.584C459.562 384.657 459.58 384.748 459.58 384.857L459.348 397.9ZM459.771 401.578C459.771 401.879 459.749 402.13 459.703 402.33C459.667 402.521 459.589 402.681 459.471 402.809C459.361 402.927 459.215 403.009 459.033 403.055C458.851 403.109 458.618 403.137 458.336 403.137C458.053 403.137 457.816 403.109 457.625 403.055C457.443 403.009 457.297 402.927 457.188 402.809C457.078 402.681 457.001 402.521 456.955 402.33C456.919 402.13 456.9 401.879 456.9 401.578C456.9 401.277 456.919 401.027 456.955 400.826C457.001 400.617 457.078 400.457 457.188 400.348C457.297 400.229 457.443 400.147 457.625 400.102C457.816 400.047 458.053 400.02 458.336 400.02C458.618 400.02 458.851 400.047 459.033 400.102C459.215 400.147 459.361 400.229 459.471 400.348C459.589 400.457 459.667 400.617 459.703 400.826C459.749 401.027 459.771 401.277 459.771 401.578Z" fill="#212323"/>
<circle cx="300" cy="23" r="23" fill="#16335B"/>
<circle cx="300.5" cy="22.5" r="11.5" fill="#FDDB5F"/>
<line x1="300.357" y1="23.3504" x2="74.3567" y2="253.35" stroke="#D8D6D6"/>
<line x1="524.654" y1="252.34" x2="298.643" y2="22.3504" stroke="#D8D6D6"/>
</svg>
