<svg width="54" height="54" viewBox="0 0 54 54" fill="none" xmlns="http://www.w3.org/2000/svg">
<path d="M45 4.5H9C6.51472 4.5 4.5 6.51472 4.5 9V45C4.5 47.4853 6.51472 49.5 9 49.5H45C47.4853 49.5 49.5 47.4853 49.5 45V9C49.5 6.51472 47.4853 4.5 45 4.5Z" fill="#16335B"/>
<path d="M39.8475 25.4026L33.0975 18.6526C32.6738 18.2289 32.0992 17.9908 31.5 17.9908C30.9008 17.9908 30.3262 18.2289 29.9025 18.6526C29.4788 19.0762 29.2408 19.6509 29.2408 20.2501C29.2408 20.8492 29.4788 21.4239 29.9025 21.8476L32.8275 24.7501H15.75C15.1533 24.7501 14.581 24.9871 14.159 25.4091C13.7371 25.831 13.5 26.4033 13.5 27.0001C13.5 27.5968 13.7371 28.1691 14.159 28.591C14.581 29.013 15.1533 29.2501 15.75 29.2501H32.8275L29.9025 32.1526C29.6916 32.3617 29.5242 32.6106 29.41 32.8848C29.2958 33.1589 29.237 33.453 29.237 33.7501C29.237 34.0471 29.2958 34.3412 29.41 34.6153C29.5242 34.8895 29.6916 35.1384 29.9025 35.3476C30.1117 35.5584 30.3605 35.7258 30.6347 35.8401C30.9089 35.9543 31.203 36.0131 31.5 36.0131C31.797 36.0131 32.0911 35.9543 32.3653 35.8401C32.6395 35.7258 32.8883 35.5584 33.0975 35.3476L39.8475 28.5976C40.0584 28.3884 40.2258 28.1395 40.34 27.8653C40.4542 27.5912 40.513 27.2971 40.513 27.0001C40.513 26.703 40.4542 26.4089 40.34 26.1348C40.2258 25.8606 40.0584 25.6117 39.8475 25.4026Z" fill="#FDDB5F"/>
</svg>
